<svg width="currentWidth" height="currentHeight" viewBox="0 0 24 24" fill="none" xmlns="http://www.w3.org/2000/svg">
<path d="M15.9697 6.96973C16.2626 6.67684 16.7373 6.67684 17.0302 6.96973C17.3231 7.26262 17.3231 7.73738 17.0302 8.03028L13.0605 12L17.0302 15.9697L17.082 16.0264C17.3223 16.321 17.3048 16.7557 17.0302 17.0303C16.7556 17.3049 16.3209 17.3223 16.0263 17.082L15.9697 17.0303L11.9999 13.0606L8.03022 17.0303C7.73732 17.3232 7.26256 17.3232 6.96967 17.0303C6.67678 16.7374 6.67678 16.2626 6.96967 15.9697L10.9394 12L6.96967 8.03028C6.67678 7.73739 6.67678 7.26262 6.96967 6.96973C7.26256 6.67684 7.73732 6.67684 8.03022 6.96973L11.9999 10.9395L15.9697 6.96973Z" fill="currentColor"/>
</svg>
