<svg width="24" height="24" viewBox="0 0 24 24" fill="none" xmlns="http://www.w3.org/2000/svg">
<path d="M18.4697 4.46973C18.7626 4.17684 19.2373 4.17684 19.5302 4.46973C19.8231 4.76262 19.8231 5.23738 19.5302 5.53028L13.5605 11.5L19.5302 17.4697L19.582 17.5264C19.8223 17.821 19.8048 18.2557 19.5302 18.5303C19.2556 18.8049 18.8209 18.8223 18.5263 18.582L18.4697 18.5303L12.4999 12.5606L6.53022 18.5303C6.23732 18.8232 5.76256 18.8232 5.46967 18.5303C5.17678 18.2374 5.17678 17.7626 5.46967 17.4697L11.4394 11.5L5.46967 5.53028C5.17678 5.23738 5.17678 4.76262 5.46967 4.46973C5.76256 4.17684 6.23732 4.17684 6.53022 4.46973L12.4999 10.4395L18.4697 4.46973Z" fill="#171717"/>
</svg>
