<svg width="24" height="24" viewBox="0 0 24 24" fill="none" xmlns="http://www.w3.org/2000/svg">
<path d="M22.8324 17.4776C23.1909 17.6851 23.3133 18.1436 23.1059 18.502C22.8984 18.8604 22.4399 18.9828 22.0815 18.7755L22.8324 17.4776ZM18.224 15.6758C18.4186 15.3398 18.8345 15.211 19.1811 15.3673L19.2494 15.4024L22.8324 17.4776L22.4565 18.126L22.0815 18.7755L18.4975 16.7012L18.433 16.6592C18.125 16.4365 18.0295 16.0119 18.224 15.6758Z" fill="#171717"/>
<path d="M22.708 10.7123C23.1222 10.7123 23.458 11.0481 23.458 11.4623C23.458 11.8766 23.1222 12.2123 22.708 12.2123H18.6221C18.2079 12.2123 17.8721 11.8766 17.8721 11.4623C17.8721 11.0481 18.2079 10.7123 18.6221 10.7123H22.708Z" fill="#171717"/>
<path d="M6.09961 8.29947C5.95279 8.35105 5.7982 8.37759 5.64258 8.37759H2.04199V13.9186H5.63965C5.75985 13.9186 5.87931 13.9346 5.99512 13.9655L6.10938 14.0016L15.9111 17.5592V4.85025L6.09961 8.29947ZM17.4111 17.7321C17.4111 18.6884 16.4614 19.3541 15.5625 19.028L5.61621 15.4186H1.9209C1.15948 15.4186 0.541992 14.8011 0.541992 14.0397V8.2565C0.541992 7.49508 1.15948 6.87759 1.9209 6.87759H5.62207L15.5752 3.37954C16.4719 3.06439 17.4111 3.72987 17.4111 4.68033V17.7321Z" fill="#171717"/>
<path d="M3.79688 19.199H5V15.6072H3.79688V19.199ZM6.5 19.321C6.4998 20.0823 5.88239 20.699 5.12109 20.699H3.67578C2.91449 20.699 2.29707 20.0823 2.29688 19.321V14.1072H6.5V19.321Z" fill="#171717"/>
<path d="M6.68896 7.75342V14.7319H5.18896V7.75342H6.68896Z" fill="#171717"/>
<path d="M22.2087 4.08629C22.5676 3.87953 23.0263 4.00281 23.2331 4.36168C23.4394 4.72032 23.3161 5.17827 22.9577 5.38511L19.2478 7.52281C18.8889 7.7294 18.4311 7.6062 18.2243 7.24742C18.0175 6.88853 18.1408 6.42982 18.4997 6.223L22.2087 4.08629Z" fill="#171717"/>
</svg>
