<svg xmlns="http://www.w3.org/2000/svg" width="currentWidth" height="currentHeight" viewBox="0 0 24 24" fill="none">
<path d="M16.4699 2.46939C17.8673 1.07212 20.133 1.07214 21.5305 2.46939C22.9279 3.86681 22.9278 6.13247 21.5305 7.52994L8.32442 20.737C8.05154 21.0099 7.84371 21.222 7.5959 21.3854C7.38906 21.5218 7.16464 21.6294 6.92891 21.7057C6.64647 21.7971 6.35062 21.8272 5.967 21.8698L2.58321 22.2458C2.35676 22.2709 2.13103 22.191 1.96993 22.0299C1.80892 21.8688 1.72993 21.643 1.75508 21.4167L2.13106 18.0329C2.17369 17.6492 2.20271 17.3534 2.29415 17.071C2.37046 16.8353 2.47808 16.6108 2.61446 16.404C2.77789 16.1561 2.99095 15.9484 3.26387 15.6754L16.4699 2.46939ZM20.4699 3.52994C19.6583 2.71847 18.3421 2.71846 17.5305 3.52994L4.32442 16.737C4.00919 17.0522 3.92758 17.1389 3.86739 17.2301C3.80541 17.3241 3.75559 17.4258 3.7209 17.5329C3.68723 17.6369 3.67056 17.7555 3.62129 18.1989L3.34786 20.651L5.80196 20.3786C6.24504 20.3293 6.36299 20.3126 6.467 20.279C6.57399 20.2443 6.67583 20.1953 6.76973 20.1335C6.86102 20.0733 6.94845 19.9909 7.26387 19.6754L20.4699 6.46939C21.2815 5.65771 21.2816 4.34157 20.4699 3.52994Z" fill="currentColor"/>
</svg>