<svg width="currentWidth" height="currentHeight" viewBox="0 0 24 24" fill="none" xmlns="http://www.w3.org/2000/svg">
<path d="M21.25 8.48145C21.25 5.83984 19.1894 3.75016 16.6963 3.75C14.9573 3.75 13.4387 4.76753 12.6689 6.28223C12.5411 6.53396 12.2824 6.69336 12 6.69336C11.7176 6.69336 11.4589 6.53396 11.3311 6.28223C10.5613 4.76753 9.04268 3.75 7.30371 3.75C4.8114 3.75016 2.75 5.84802 2.75 8.48145C2.75018 11.2038 4.39471 13.7922 6.6875 16.0156C7.82105 17.1149 9.24411 18.2011 10.3975 19.0195C10.9712 19.4267 11.4725 19.7641 11.8301 19.999C11.8893 20.0379 11.9451 20.0733 11.9961 20.1064C12.0435 20.0752 12.0957 20.0422 12.1504 20.0059C12.4996 19.7735 12.9912 19.4395 13.5586 19.0342C14.6979 18.2202 16.1261 17.1311 17.3213 16.0078C19.868 13.6154 21.2499 11.225 21.25 8.48145ZM22.75 8.48145C22.7499 11.5958 21.2575 14.2146 18.8438 16.6221L18.3486 17.1006C17.0829 18.2902 15.5935 19.4241 14.4307 20.2549C13.8473 20.6716 13.3417 21.0151 12.9814 21.2549C12.8014 21.3747 12.6571 21.4688 12.5576 21.5332C12.5079 21.5654 12.4688 21.5905 12.4424 21.6074C12.4292 21.6158 12.4191 21.6225 12.4121 21.627C12.4088 21.6291 12.4062 21.6307 12.4043 21.6318C12.4033 21.6324 12.4019 21.6325 12.4014 21.6328V21.6338H12.4004C12.1877 21.7682 11.9244 21.786 11.6982 21.6865L11.6035 21.6367C11.603 21.6364 11.6015 21.6354 11.6006 21.6348C11.5986 21.6335 11.5954 21.6322 11.5918 21.6299C11.5845 21.6253 11.5742 21.618 11.5605 21.6094C11.5332 21.5922 11.4935 21.5668 11.4424 21.5342C11.3399 21.4688 11.1916 21.3734 11.0068 21.252C10.6373 21.0091 10.1206 20.6618 9.5293 20.2422C8.35223 19.4069 6.85699 18.2705 5.64258 17.0928C3.2396 14.7625 1.25018 11.8068 1.25 8.48145C1.25 5.06707 3.93629 2.25016 7.30371 2.25C9.21087 2.25 10.8962 3.15709 12 4.55664C13.1038 3.15709 14.7891 2.25 16.6963 2.25C20.0629 2.25016 22.75 5.05725 22.75 8.48145Z" fill="currentColor"/>
</svg>
