<svg width="currentWidth" height="currentHeight" viewBox="0 0 24 24" fill="none" xmlns="http://www.w3.org/2000/svg">
<path d="M21.9003 16.75L21.9764 16.7539C22.3547 16.7922 22.6503 17.1116 22.6503 17.5C22.6503 17.8884 22.3547 18.2078 21.9764 18.2461L21.9003 18.25H13.7333C13.3191 18.25 12.9833 17.9142 12.9833 17.5C12.9833 17.0858 13.3191 16.75 13.7333 16.75H21.9003Z" fill="currentColor"/>
<path d="M14.666 10.8834C15.0802 10.8834 15.416 11.2192 15.416 11.6334C15.416 12.0476 15.0802 12.3834 14.666 12.3834H2.09961C1.6854 12.3834 1.34961 12.0476 1.34961 11.6334C1.34961 11.2192 1.6854 10.8834 2.09961 10.8834H14.666Z" fill="currentColor"/>
<path d="M21.9003 5.38343L21.9764 5.38733C22.3548 5.42557 22.6503 5.74498 22.6503 6.13343C22.6503 6.52188 22.3548 6.84129 21.9764 6.87952L21.9003 6.88343H10.4335C10.0193 6.88343 9.68347 6.54764 9.68347 6.13343C9.68347 5.71921 10.0193 5.38343 10.4335 5.38343H21.9003Z" fill="currentColor"/>
<path d="M5.62292 4.15625C6.71497 3.06421 8.48498 3.06421 9.57703 4.15625C10.6689 5.24832 10.669 7.01836 9.57703 8.11036C8.48503 9.20235 6.71499 9.20224 5.62292 8.11036C4.53088 7.01831 4.53088 5.2483 5.62292 4.15625ZM8.51648 5.2168C8.01022 4.71054 7.18973 4.71054 6.68347 5.2168C6.17721 5.72306 6.17721 6.54355 6.68347 7.04981C7.18975 7.55591 8.01027 7.55602 8.51648 7.04981C9.02269 6.5436 9.02258 5.72308 8.51648 5.2168Z" fill="currentColor"/>
<path d="M15.5233 9.65626C16.6154 8.56421 18.3854 8.56421 19.4774 9.65626C20.5693 10.7483 20.5694 12.5184 19.4774 13.6104C18.3854 14.7023 16.6154 14.7022 15.5233 13.6104C14.4313 12.5183 14.4313 10.7483 15.5233 9.65626ZM18.4169 10.7168C17.9106 10.2105 17.0901 10.2105 16.5839 10.7168C16.0776 11.2231 16.0776 12.0435 16.5839 12.5498C17.0901 13.0559 17.9107 13.056 18.4169 12.5498C18.9231 12.0436 18.923 11.2231 18.4169 10.7168Z" fill="currentColor"/>
<path d="M8.92273 15.5234C10.0148 14.4314 11.7848 14.4314 12.8768 15.5234C13.9687 16.6155 13.9688 18.3856 12.8768 19.4775C11.7848 20.5695 10.0148 20.5694 8.92273 19.4775C7.83068 18.3855 7.83068 16.6155 8.92273 15.5234ZM11.8163 16.584C11.31 16.0777 10.4895 16.0777 9.98328 16.584C9.47702 17.0903 9.47702 17.9107 9.98328 18.417C10.4896 18.9231 11.3101 18.9232 11.8163 18.417C12.3225 17.9108 12.3224 17.0903 11.8163 16.584Z" fill="currentColor"/>
<path d="M4.7666 5.38343L4.84277 5.38733C5.22105 5.42566 5.5166 5.74504 5.5166 6.13343C5.5166 6.52182 5.22105 6.8412 4.84277 6.87952L4.7666 6.88343H2.09961C1.6854 6.88343 1.34961 6.54764 1.34961 6.13343C1.34961 5.71921 1.6854 5.38343 2.09961 5.38343H4.7666Z" fill="currentColor"/>
<path d="M21.8993 10.8834C22.3135 10.8834 22.6493 11.2192 22.6493 11.6334C22.6493 12.0476 22.3135 12.3834 21.8993 12.3834H20.3329C19.9187 12.3834 19.5829 12.0476 19.5829 11.6334C19.5829 11.2192 19.9187 10.8834 20.3329 10.8834H21.8993Z" fill="currentColor"/>
<path d="M8.06641 16.75L8.14258 16.7539C8.52095 16.7921 8.81641 17.1116 8.81641 17.5C8.81641 17.8885 8.52095 18.2079 8.14258 18.2461L8.06641 18.25H2.09961C1.6854 18.25 1.34961 17.9142 1.34961 17.5C1.34961 17.0858 1.6854 16.75 2.09961 16.75H8.06641Z" fill="currentColor"/>
</svg>
