<svg width="24" height="24" viewBox="0 0 24 24" fill="none" xmlns="http://www.w3.org/2000/svg">
<path d="M15.7793 8.5293C15.7792 6.44204 14.0873 4.75 12 4.75C9.91278 4.75006 8.22077 6.44208 8.2207 8.5293C8.2207 10.6166 9.91274 12.3085 12 12.3086C14.0873 12.3086 15.7793 10.6166 15.7793 8.5293ZM17.2793 8.5293C17.2793 11.445 14.9157 13.8086 12 13.8086C9.08431 13.8085 6.7207 11.445 6.7207 8.5293C6.72077 5.61365 9.08435 3.25006 12 3.25C14.9157 3.25 17.2792 5.61361 17.2793 8.5293Z" fill="#171717"/>
<path d="M15.342 14.4676C16.96 14.4677 18.5143 15.0982 19.675 16.2254L19.802 16.3484C20.8946 17.4097 21.5594 18.8352 21.6711 20.3543L21.7307 21.1629C21.772 21.7244 21.3279 22.2029 20.7649 22.2029H3.24048C2.67039 22.2029 2.22344 21.713 2.27563 21.1453L2.36255 20.1961C2.49303 18.7768 3.10716 17.4454 4.1018 16.4246L4.17798 16.3465C5.34868 15.1453 6.95475 14.4677 8.63208 14.4676H15.342ZM8.63208 15.9676C7.35928 15.9677 6.14057 16.4819 5.2522 17.3934L5.17602 17.4715C4.42141 18.246 3.9558 19.256 3.85669 20.3328L3.82251 20.7029H20.1926L20.175 20.4647C20.0903 19.3118 19.5854 18.23 18.7561 17.4246L18.6301 17.3016C17.7493 16.4462 16.5698 15.9677 15.342 15.9676H8.63208Z" fill="#171717"/>
</svg>
