<svg width="24" height="24" viewBox="0 0 24 24" fill="none" xmlns="http://www.w3.org/2000/svg">
<path d="M7.75 9.5V5.25H3.5C3.08579 5.25 2.75 4.91421 2.75 4.5C2.75 4.08579 3.08579 3.75 3.5 3.75H9.25V9.5C9.25 9.91421 8.91421 10.25 8.5 10.25C8.08579 10.25 7.75 9.91421 7.75 9.5Z" fill="#171717"/>
<path d="M12.5361 3.25098L12.9404 3.27051C18.6189 3.54091 22.6098 8.96795 21.1748 14.4688C20.8519 15.7064 20.2675 16.8608 19.4609 17.8535L19.3926 17.9375C16.2048 21.8609 10.4287 22.432 6.53418 19.209C2.05238 15.4998 2.15693 8.5942 6.74902 5.02246L7.53906 4.4082C7.86589 4.15401 8.33742 4.21246 8.5918 4.53906C8.84599 4.86589 8.78754 5.33742 8.46094 5.5918L7.66992 6.20703C3.83542 9.18981 3.74855 14.9563 7.49121 18.0537C10.7434 20.7448 15.5666 20.2674 18.2285 16.9912L18.2969 16.9072C18.9682 16.0809 19.4549 15.12 19.7236 14.0898C20.9179 9.5111 17.5958 4.99363 12.8691 4.76855L12.4639 4.74902C12.0503 4.72908 11.7313 4.37746 11.751 3.96387C11.7697 3.57617 12.0795 3.2713 12.459 3.25098H12.5361Z" fill="#171717"/>
</svg>
