<svg width="currentWidth" height="currentHeight" viewBox="0 0 24 24" fill="none" xmlns="http://www.w3.org/2000/svg">
<path d="M21.25 5.59806C21.2498 5.1288 20.8687 4.74845 20.3994 4.74845H3.19922C2.73009 4.74866 2.34982 5.12893 2.34961 5.59806V20.3988C2.34982 20.868 2.73009 21.2482 3.19922 21.2484H20.3994C20.8687 21.2484 21.2498 20.8681 21.25 20.3988V5.59806ZM22.75 20.3988C22.7498 21.6965 21.6972 22.7484 20.3994 22.7484H3.19922C1.90166 22.7482 0.84982 21.6964 0.849609 20.3988V5.59806C0.849821 4.3005 1.90166 3.24866 3.19922 3.24845H20.3994C21.6972 3.24845 22.7498 4.30037 22.75 5.59806V20.3988Z" fill="currentColor"/>
<path d="M6.05039 6.79865V1.59845C6.05039 1.18424 6.38618 0.84845 6.80039 0.84845C7.2146 0.84845 7.55039 1.18424 7.55039 1.59845V6.79865C7.55029 7.21277 7.21454 7.54865 6.80039 7.54865C6.38624 7.54865 6.0505 7.21277 6.05039 6.79865Z" fill="currentColor"/>
<path d="M11.25 6.79865V1.59845C11.25 1.18424 11.5858 0.84845 12 0.84845C12.4142 0.84845 12.75 1.18424 12.75 1.59845V6.79865C12.7499 7.21277 12.4141 7.54865 12 7.54865C11.5859 7.54865 11.2501 7.21277 11.25 6.79865Z" fill="currentColor"/>
<path d="M16.05 6.79865V1.59845C16.05 1.18424 16.3858 0.84845 16.8 0.84845C17.2142 0.84845 17.55 1.18424 17.55 1.59845V6.79865C17.5499 7.21277 17.2141 7.54865 16.8 7.54865C16.3859 7.54865 16.0501 7.21277 16.05 6.79865Z" fill="currentColor"/>
<path d="M17.2002 10.8516L17.2764 10.8555C17.6547 10.8937 17.9502 11.2131 17.9502 11.6016C17.9502 11.99 17.6547 12.3094 17.2764 12.3477L17.2002 12.3516H6C5.58579 12.3516 5.25 12.0158 5.25 11.6016C5.25 11.1874 5.58579 10.8516 6 10.8516H17.2002Z" fill="currentColor"/>
<path d="M12.4004 15.6516L12.4766 15.6555C12.8548 15.6938 13.1504 16.0132 13.1504 16.4016C13.1504 16.7899 12.8548 17.1093 12.4766 17.1477L12.4004 17.1516H6C5.58579 17.1516 5.25 16.8158 5.25 16.4016C5.25 15.9874 5.58579 15.6516 6 15.6516H12.4004Z" fill="currentColor"/>
</svg>
