<svg width="24" height="24" viewBox="0 0 24 24" fill="none" xmlns="http://www.w3.org/2000/svg">
<path d="M8.78418 10.4181C8.91137 10.5253 9.09657 10.5262 9.22461 10.42L14.0322 6.4259H4.05176L8.78418 10.4181ZM16.8594 10.1945H15.3594V7.27356L10.1836 11.5734C9.49653 12.1442 8.4991 12.1406 7.81641 11.5646L2.75 7.28918V14.5353C2.75004 14.7251 2.90393 14.879 3.09375 14.879H12.125V16.379H3.09375C2.0755 16.379 1.25004 15.5535 1.25 14.5353V4.9259H16.8594V10.1945Z" fill="#171717"/>
<path d="M20.0876 14.6204C20.0876 12.6266 18.471 11.0101 16.4773 11.01C14.4834 11.01 12.8669 12.6265 12.8669 14.6204C12.867 16.6141 14.4835 18.2307 16.4773 18.2307C18.471 18.2306 20.0875 16.6141 20.0876 14.6204ZM21.5876 14.6204C21.5875 17.4425 19.2994 19.7306 16.4773 19.7307C13.6551 19.7307 11.367 17.4426 11.3669 14.6204C11.3669 11.7981 13.655 9.51003 16.4773 9.51003C19.2995 9.51012 21.5876 11.7982 21.5876 14.6204Z" fill="#171717"/>
<path d="M23.5843 20.7408C23.8772 21.0337 23.8772 21.5085 23.5843 21.8014C23.2914 22.0942 22.8167 22.0942 22.5238 21.8014L18.8783 18.1558L19.9388 17.0953L23.5843 20.7408Z" fill="#171717"/>
</svg>
