<svg width="currentWidth" height="currentHeight" viewBox="0 0 24 24" fill="none" xmlns="http://www.w3.org/2000/svg">
<path d="M15.5274 1.91995C16.4197 1.02721 17.8668 1.02697 18.7599 1.91897L21.4093 4.56546C22.3026 5.45781 22.3038 6.90572 21.4112 7.79885L8.90146 20.3155C8.58312 20.6339 8.1778 20.8515 7.73642 20.9405L2.14853 22.0664C1.90241 22.116 1.6474 22.0388 1.46982 21.8614C1.29235 21.6838 1.21518 21.4287 1.26474 21.1826L2.39267 15.6006C2.48172 15.16 2.69893 14.7555 3.01669 14.4375L15.5274 1.91995ZM4.07724 15.4981C3.96823 15.6073 3.894 15.7463 3.86337 15.8975L2.95908 20.3721L7.43955 19.4698C7.59134 19.4392 7.73145 19.3644 7.84091 19.2549L17.172 9.91702L13.4122 6.15725L4.07724 15.4981ZM17.6993 2.97952C17.3923 2.6732 16.8946 2.67368 16.588 2.9805L14.4727 5.09671L18.2325 8.85647L20.3497 6.73831C20.6566 6.43129 20.6567 5.93379 20.3497 5.62698L17.6993 2.97952Z" fill="currentColor"/>
</svg>
