<svg width="24" height="24" viewBox="0 0 24 24" fill="none" xmlns="http://www.w3.org/2000/svg">
<path d="M9.59473 4.13874C10.2082 1.62042 13.7918 1.62042 14.4053 4.13874L14.4111 4.16413C14.4488 4.30416 14.5159 4.43468 14.6104 4.54499C14.71 4.66144 14.8359 4.75294 14.9775 4.81159C15.1192 4.87025 15.2729 4.8938 15.4258 4.88191C15.5786 4.87001 15.7266 4.82212 15.8574 4.74226C18.0031 3.43485 20.4492 5.77252 19.373 7.93366L19.2578 8.14265C19.178 8.27347 19.1301 8.4215 19.1182 8.57429C19.1063 8.72714 19.1308 8.88088 19.1895 9.02253C19.2481 9.1641 19.3396 9.29006 19.4561 9.38972C19.5724 9.48923 19.7106 9.5597 19.8594 9.59577C22.3812 10.2064 22.3786 13.7917 19.8594 14.4034C19.7106 14.4397 19.5724 14.5117 19.4561 14.6114C19.3398 14.7111 19.2481 14.837 19.1895 14.9786C19.1309 15.1201 19.1073 15.2741 19.1191 15.4268C19.131 15.5795 19.1781 15.7276 19.2578 15.8585C20.6071 18.0734 18.0723 20.6074 15.8574 19.2579C15.7266 19.1783 15.5785 19.131 15.4258 19.1192C15.2731 19.1075 15.12 19.1319 14.9785 19.1905C14.8368 19.2492 14.7101 19.3397 14.6104 19.4561C14.5106 19.5726 14.4405 19.7115 14.4043 19.8604C13.793 22.3814 10.2073 22.3784 9.5957 19.8594C9.55964 19.7107 9.48914 19.5725 9.38965 19.4561C9.29003 19.3397 9.16399 19.2482 9.02246 19.1895C8.88082 19.1309 8.72706 19.1063 8.57422 19.1182C8.45967 19.1271 8.34804 19.1565 8.24414 19.2042L8.14258 19.2579C5.92772 20.6074 3.39287 18.0734 4.74219 15.8585V15.8575C4.82206 15.7266 4.86994 15.5787 4.88184 15.4259C4.89371 15.273 4.86919 15.1192 4.81055 14.9776C4.75189 14.8361 4.6603 14.71 4.54395 14.6104C4.4276 14.511 4.2894 14.4404 4.14063 14.4044C1.69768 13.8128 1.62328 10.4293 3.91113 9.66218L4.14063 9.59577C4.78089 9.43967 5.08496 8.70526 4.74219 8.14265C3.39248 5.92761 5.92762 3.39264 8.14258 4.74226C8.27329 4.8218 8.42069 4.87008 8.57324 4.88191C8.72602 4.89369 8.87994 4.86929 9.02149 4.81062C9.16305 4.75191 9.28906 4.66047 9.38867 4.54401C9.48829 4.42754 9.55868 4.28868 9.59473 4.13972V4.13874ZM12.9385 4.46198C12.6746 3.50249 11.2917 3.51332 11.0527 4.49421C10.961 4.87215 10.7811 5.22306 10.5283 5.51862C10.2752 5.81455 9.95541 6.04621 9.5957 6.19538C9.23604 6.34451 8.84621 6.40697 8.45801 6.37702C8.06983 6.34704 7.69383 6.22605 7.36133 6.02351C6.48927 5.49231 5.49234 6.48946 6.02344 7.3614C6.86816 8.74734 6.1684 10.5423 4.64453 11.0128L4.49414 11.0538C3.50117 11.2949 3.50312 12.7062 4.49317 12.9464H4.49414C4.87258 13.0381 5.2237 13.2185 5.51953 13.4717C5.81543 13.725 6.04727 14.0445 6.19629 14.4044C6.34526 14.7642 6.40713 15.1538 6.37695 15.5421C6.34675 15.9301 6.22511 16.3054 6.02246 16.6378C5.49111 17.5098 6.48919 18.508 7.36133 17.9766C7.69373 17.7739 8.06982 17.6533 8.45801 17.6231C8.84625 17.5929 9.23591 17.6548 9.5957 17.8038C9.95561 17.9528 10.276 18.1846 10.5293 18.4805C10.7824 18.7763 10.962 19.1277 11.0537 19.5059L11.0801 19.5958C11.3821 20.4977 12.7136 20.4661 12.9463 19.5069V19.5059C13.0383 19.1276 13.2184 18.7762 13.4717 18.4805C13.725 18.1849 14.0446 17.9527 14.4043 17.8038C14.764 17.6549 15.1539 17.5931 15.542 17.6231C15.8817 17.6494 16.2117 17.746 16.5117 17.9053L16.6387 17.9766L16.7207 18.0225C17.5716 18.446 18.4913 17.4834 17.9766 16.6387C17.774 16.3062 17.6531 15.9302 17.623 15.5421C17.593 15.1539 17.6548 14.7641 17.8037 14.4044C17.9527 14.0446 18.1848 13.7251 18.4805 13.4717C18.7761 13.2185 19.1276 13.0384 19.5059 12.9464C20.4988 12.7053 20.497 11.2939 19.5068 11.0538H19.5059C19.1276 10.9621 18.7762 10.7824 18.4805 10.5294C18.1847 10.2762 17.9528 9.95644 17.8037 9.59675C17.6547 9.23685 17.5928 8.84644 17.623 8.45808C17.6533 8.06983 17.7737 7.69383 17.9766 7.3614C18.491 6.51678 17.5715 5.55426 16.7207 5.97761L16.6387 6.02351C16.3062 6.22631 15.9302 6.34778 15.542 6.378C15.1539 6.40817 14.764 6.34621 14.4043 6.19734C14.0444 6.04832 13.724 5.81648 13.4707 5.52058C13.2174 5.22469 13.038 4.87274 12.9463 4.49421L12.9385 4.46198ZM13.25 12.0001C13.25 11.3097 12.6904 10.7501 12 10.7501C11.3096 10.7501 10.75 11.3097 10.75 12.0001C10.75 12.6904 11.3096 13.2501 12 13.2501C12.6904 13.2501 13.25 12.6904 13.25 12.0001ZM14.75 12.0001C14.75 13.5189 13.5188 14.7501 12 14.7501C10.4812 14.7501 9.25 13.5189 9.25 12.0001C9.25 10.4813 10.4812 9.25007 12 9.25007C13.5188 9.25007 14.75 10.4813 14.75 12.0001Z" fill="#171717"/>
</svg>
