<svg width="currentWidth" height="currentHeight" viewBox="0 0 24 24" fill="none" xmlns="http://www.w3.org/2000/svg">
<g clip-path="url(#clip0_12_10368)">
<path d="M19.3057 9.73376C19.3056 9.69084 19.2859 9.64992 19.2529 9.62243L12.0928 3.65564C12.039 3.61084 11.961 3.61089 11.9072 3.65564L4.74609 9.62243C4.7132 9.64992 4.69444 9.6909 4.69434 9.73376V20.5033C4.69441 20.5833 4.75977 20.6478 4.83984 20.6478H8.41992C8.49986 20.6477 8.56438 20.5833 8.56445 20.5033V15.5804C8.56445 14.6719 9.30142 13.9349 10.21 13.9349H13.79C14.6986 13.9349 15.4355 14.6719 15.4355 15.5804V20.5033C15.4356 20.5833 15.5 20.6478 15.5801 20.6478H19.1602C19.2402 20.6478 19.3056 20.5833 19.3057 20.5033V9.73376ZM20.8057 20.5033C20.8056 21.4118 20.0687 22.1478 19.1602 22.1478H15.5801C14.6716 22.1478 13.9356 21.4118 13.9355 20.5033V15.5804C13.9355 15.5003 13.8701 15.4349 13.79 15.4349H10.21C10.1298 15.4349 10.0645 15.5003 10.0645 15.5804V20.5033C10.0644 21.4117 9.32829 22.1477 8.41992 22.1478H4.83984C3.93135 22.1478 3.19441 21.4118 3.19434 20.5033V9.73376C3.19444 9.24567 3.41116 8.78257 3.78613 8.47009L10.9463 2.50329C11.5563 1.99495 12.4427 1.99504 13.0527 2.50329L20.2139 8.47009C20.5888 8.78257 20.8056 9.2457 20.8057 9.73376V20.5033Z" fill="currentColor"/>
</g>
<defs>
<clipPath id="clip0_12_10368">
<rect width="20" height="20" fill="white" transform="translate(2 2)"/>
</clipPath>
</defs>
</svg>
