<svg width="24" height="24" viewBox="0 0 24 24" fill="none" xmlns="http://www.w3.org/2000/svg">
<path d="M15.977 16.2346C16.2699 15.9417 16.7446 15.9417 17.0375 16.2346L21.2416 20.4387C21.5345 20.7316 21.5345 21.2064 21.2416 21.4993C20.9487 21.7922 20.474 21.7922 20.1811 21.4993L15.977 17.2952C15.6841 17.0023 15.6841 16.5275 15.977 16.2346Z" fill="#171717"/>
<path d="M18 10.8785C17.9998 6.95858 14.8214 3.78088 10.9014 3.78088C6.98152 3.78107 3.80389 6.95869 3.80371 10.8785C3.80371 14.7985 6.98141 17.977 10.9014 17.9772C14.8215 17.9772 18 14.7987 18 10.8785ZM19.5 10.8785C19.5 15.6271 15.6499 19.4772 10.9014 19.4772C6.15298 19.477 2.30371 15.627 2.30371 10.8785C2.30389 6.13027 6.15309 2.28107 10.9014 2.28088C15.6498 2.28088 19.4998 6.13015 19.5 10.8785Z" fill="#171717"/>
</svg>
