<svg width="currentWidth" height="currentHeight" viewBox="0 0 24 24" fill="none" xmlns="http://www.w3.org/2000/svg">
<path d="M20.8506 8.51855C20.8506 7.60728 20.1115 6.86816 19.2002 6.86816H16.8008C16.534 6.86816 16.2868 6.72651 16.1523 6.49609L14.6895 3.98828H9.31152L7.84863 6.49609C7.71423 6.72651 7.46695 6.86816 7.2002 6.86816H4.80078C3.88951 6.86816 3.15039 7.60729 3.15039 8.51855V18.3584C3.15045 19.2696 3.88955 20.0078 4.80078 20.0078H19.2002C20.1114 20.0078 20.8505 19.2696 20.8506 18.3584V8.51855ZM14.8506 12.8379C14.8504 11.2641 13.5739 9.98828 12 9.98828C10.4263 9.98849 9.1506 11.2642 9.15039 12.8379C9.15039 14.4118 10.4262 15.6883 12 15.6885C13.574 15.6885 14.8506 14.4119 14.8506 12.8379ZM16.3506 12.8379C16.3506 15.2403 14.4024 17.1885 12 17.1885C9.59774 17.1883 7.65039 15.2402 7.65039 12.8379C7.6506 10.4358 9.59787 8.48849 12 8.48828C14.4023 8.48828 16.3504 10.4356 16.3506 12.8379ZM22.3506 18.3584C22.3505 20.098 20.9399 21.5078 19.2002 21.5078H4.80078C3.06112 21.5078 1.65045 20.098 1.65039 18.3584V8.51855C1.65039 6.77886 3.06109 5.36816 4.80078 5.36816H6.76953L8.23242 2.86035L8.28809 2.77832C8.42899 2.59682 8.64744 2.48828 8.88086 2.48828H15.1201C15.3869 2.48828 15.6341 2.62994 15.7686 2.86035L17.2314 5.36816H19.2002C20.9399 5.36816 22.3506 6.77886 22.3506 8.51855V18.3584Z" fill="currentColor"/>
</svg>
