<svg width="24" height="24" viewBox="0 0 24 24" fill="none" xmlns="http://www.w3.org/2000/svg">
<path d="M8.92871 10.3757C9.34292 10.3757 9.67871 10.7115 9.67871 11.1257C9.67871 11.5399 9.34292 11.8757 8.92871 11.8757H3.38965C2.97543 11.8757 2.63965 11.5399 2.63965 11.1257C2.63965 10.7115 2.97543 10.3757 3.38965 10.3757H8.92871Z" fill="#171717"/>
<path d="M12.3008 13.2294C12.715 13.2294 13.0508 13.5652 13.0508 13.9794C13.0508 14.3936 12.715 14.7294 12.3008 14.7294H3.38965C2.97543 14.7294 2.63965 14.3936 2.63965 13.9794C2.63965 13.5652 2.97543 13.2294 3.38965 13.2294H12.3008Z" fill="#171717"/>
<path d="M22.0278 6.27203C22.0278 6.05285 21.8724 5.86925 21.6655 5.82672L21.5737 5.81793H10.6147C10.3639 5.81816 10.1607 6.02161 10.1606 6.27203V6.84723H13.3853C14.4637 6.84771 15.3392 7.72208 15.3394 8.80133V13.9488L16.6089 15.0474V13.5904H21.5737L21.6655 13.5816C21.8427 13.5452 21.9827 13.4052 22.019 13.2281L22.0278 13.1363V6.27203ZM23.5278 13.1363L23.5181 13.3365C23.4245 14.2559 22.6931 14.987 21.7739 15.0806L21.5737 15.0904H18.1089V16.1617L18.0972 16.316C17.9852 17.062 17.0728 17.4318 16.4702 16.9117H16.4692L14.3647 15.0904H13.8394V8.80133C13.8393 8.58206 13.6834 8.39828 13.4761 8.35602L13.3853 8.34723H8.66064V6.27203C8.66075 5.19282 9.53608 4.3183 10.6147 4.31793H21.5737L21.7739 4.3277C22.7589 4.42806 23.5277 5.26038 23.5278 6.27203V13.1363Z" fill="#171717"/>
<path d="M13.8394 8.80103C13.8393 8.58196 13.6839 8.39829 13.4771 8.35571L13.3853 8.34692H2.42627C2.17551 8.34699 1.97223 8.55026 1.97217 8.80103V15.6653L1.98096 15.7571C2.02338 15.9639 2.20686 16.1193 2.42627 16.1194H7.39111V17.5764L8.86377 16.302L9.07568 16.1194H13.3853L13.4771 16.1106C13.6543 16.0741 13.7942 15.9341 13.8306 15.7571L13.8394 15.6653V8.80103ZM15.3394 15.6653L15.3296 15.8655C15.236 16.785 14.5045 17.5159 13.5854 17.6096L13.3853 17.6194H9.63525L7.53076 19.4407H7.52979C6.88654 19.9965 5.89111 19.5373 5.89111 18.6907V17.6194H2.42627C1.41471 17.6193 0.582194 16.8507 0.481934 15.8655L0.472168 15.6653V8.80103C0.472276 7.72189 1.34714 6.84703 2.42627 6.84692H13.3853L13.5854 6.85669C14.5703 6.95711 15.3393 7.78933 15.3394 8.80103V15.6653Z" fill="#171717"/>
</svg>
