<svg width="24" height="24" viewBox="0 0 24 24" fill="none" xmlns="http://www.w3.org/2000/svg">
<path d="M14.1498 18.4375C14.4604 18.1636 14.9343 18.1934 15.2084 18.5039C15.4823 18.8145 15.4525 19.2885 15.142 19.5625C14.3052 20.301 13.2043 20.7499 12.0004 20.75C10.8715 20.75 9.83293 20.3553 9.01797 19.6973L8.85781 19.5625L8.80312 19.5088C8.54492 19.2297 8.53539 18.7951 8.79238 18.5039C9.0493 18.2129 9.4815 18.1684 9.79043 18.3896L9.85097 18.4375L10.0736 18.6182C10.6128 19.0158 11.2787 19.25 12.0004 19.25C12.8251 19.2499 13.5765 18.9435 14.1498 18.4375ZM17.2504 8C17.2504 6.60767 16.6968 5.27264 15.7123 4.28809C14.7278 3.30357 13.3927 2.75006 12.0004 2.75C10.608 2.75 9.27206 3.30352 8.2875 4.28809C7.30317 5.27262 6.75039 6.60779 6.75039 8C6.75039 11.2233 5.93509 13.4778 4.98672 15.002C4.65078 15.5418 4.40055 15.9456 4.22695 16.2412C4.51152 16.2477 4.89121 16.25 5.38906 16.25H18.6117C19.1091 16.25 19.4884 16.2477 19.7729 16.2412C19.5993 15.9456 19.3498 15.5416 19.0141 15.002C18.0657 13.4778 17.2504 11.2233 17.2504 8ZM18.7504 8C18.7504 10.957 19.4943 12.9342 20.2875 14.209C20.6514 14.7939 20.9355 15.2497 21.1254 15.5791C21.2196 15.7426 21.3015 15.8939 21.3607 16.0244C21.3903 16.0895 21.4211 16.165 21.4447 16.2441C21.4647 16.3113 21.4995 16.4439 21.4867 16.6016C21.4765 16.727 21.4522 16.9187 21.3441 17.1133C21.2361 17.3078 21.0858 17.429 20.9848 17.5039C20.7858 17.6514 20.5511 17.6866 20.4594 17.7002C20.3256 17.72 20.1692 17.7308 20.0033 17.7373C19.6695 17.7503 19.2026 17.75 18.6117 17.75H5.38906C4.79803 17.75 4.33139 17.7503 3.99746 17.7373C3.83144 17.7308 3.67434 17.72 3.54043 17.7002C3.44833 17.6866 3.21369 17.6513 3.01504 17.5039C2.91405 17.429 2.76469 17.3076 2.65664 17.1133C2.54855 16.9187 2.52432 16.727 2.51406 16.6016C2.50123 16.4439 2.53506 16.3113 2.55508 16.2441C2.57868 16.165 2.61048 16.0895 2.64004 16.0244C2.6993 15.894 2.78119 15.7425 2.87539 15.5791C3.06526 15.2497 3.3494 14.7938 3.71328 14.209C4.45689 13.0139 5.15698 11.2013 5.2416 8.54297L5.25039 8C5.25039 6.20979 5.96108 4.49243 7.22695 3.22656C8.49281 1.96076 10.2102 1.25 12.0004 1.25C13.7903 1.25006 15.5071 1.96098 16.7728 3.22656C18.0387 4.49243 18.7504 6.20979 18.7504 8Z" fill="#171717"/>
</svg>
