<svg width="24" height="24" viewBox="0 0 24 24" fill="none" xmlns="http://www.w3.org/2000/svg">
<path d="M17.2085 9.25V3.75C17.2085 3.33579 17.5443 3 17.9585 3C18.3727 3 18.7085 3.33579 18.7085 3.75V9.25C18.7085 9.66421 18.3727 10 17.9585 10C17.5443 10 17.2085 9.66421 17.2085 9.25Z" fill="#171717"/>
<path d="M15.2085 5.75L20.7085 5.75C21.1227 5.75 21.4585 6.08579 21.4585 6.5C21.4585 6.91421 21.1227 7.25 20.7085 7.25L15.2085 7.25C14.7943 7.25 14.4585 6.91421 14.4585 6.5C14.4585 6.08579 14.7943 5.75 15.2085 5.75Z" fill="#171717"/>
<path d="M2.0835 17.5V8.33301C2.08367 5.38775 4.47124 3.00018 7.4165 3H12.9165C13.3307 3 13.6665 3.33579 13.6665 3.75C13.6665 4.16421 13.3307 4.5 12.9165 4.5H7.4165C5.29967 4.50018 3.58367 6.21617 3.5835 8.33301V17.5L3.58838 17.6973C3.69104 19.7226 5.36572 21.3328 7.4165 21.333H16.5835C18.7006 21.333 20.4165 19.6171 20.4165 17.5V11.083C20.4167 10.6691 20.7525 10.3332 21.1665 10.333C21.5806 10.333 21.9163 10.6689 21.9165 11.083V17.5C21.9165 20.4455 19.529 22.833 16.5835 22.833H7.4165C4.56317 22.8328 2.23315 20.5923 2.09033 17.7744L2.0835 17.5Z" fill="#171717"/>
<path d="M7.04346 7.04335C8.26202 5.82479 10.2379 5.8249 11.4565 7.04335C12.6752 8.26196 12.6752 10.2378 11.4565 11.4564C10.2379 12.675 8.26207 12.675 7.04346 11.4564C5.82501 10.2378 5.8249 8.26191 7.04346 7.04335ZM10.396 8.1039C9.76316 7.47123 8.73678 7.47113 8.104 8.1039C7.47123 8.73667 7.47134 9.76305 8.104 10.3959C8.69727 10.9892 9.63648 11.0263 10.2729 10.5072L10.396 10.3959C10.9893 9.80256 11.0266 8.86342 10.5073 8.22694L10.396 8.1039Z" fill="#171717"/>
<path d="M20.4167 14.7496C20.4165 14.046 19.6135 13.6449 19.0505 14.067L14.1999 17.7047C12.9071 18.6742 11.0613 18.3298 10.2048 16.9596C9.8202 16.3442 8.99655 16.1806 8.40598 16.6022L3.72726 19.944C3.39024 20.1843 2.92202 20.1061 2.68137 19.7691C2.44066 19.4321 2.51913 18.964 2.85617 18.7233L7.53391 15.3815C8.82819 14.4571 10.6343 14.8159 11.4773 16.1647C11.8681 16.7896 12.7097 16.9466 13.2995 16.5045L18.1501 12.8668C19.702 11.7029 21.9165 12.8099 21.9167 14.7496C21.9167 15.1638 21.5809 15.4996 21.1667 15.4996C20.7525 15.4996 20.4167 15.1638 20.4167 14.7496Z" fill="#171717"/>
</svg>
