<svg width="currentWidth" height="currentHeight" viewBox="0 0 24 24" fill="none" xmlns="http://www.w3.org/2000/svg">
<path d="M20.25 17.2227C20.1481 17.1963 20.0495 17.1519 19.9639 17.082L19.9072 17.0303L15.9375 13.0605L11.4053 17.5928C11.1124 17.8857 10.6376 17.8857 10.3447 17.5928L8.625 15.873L4.78613 19.7109C5.22751 20.0477 5.77699 20.25 6.375 20.25H17.625C19.0747 20.25 20.25 19.0747 20.25 17.625V17.2227ZM9 8.0625C9 7.54473 8.58027 7.125 8.0625 7.125C7.54473 7.125 7.125 7.54473 7.125 8.0625C7.125 8.58027 7.54473 9 8.0625 9C8.58027 9 9 8.58027 9 8.0625ZM20.25 6.375C20.25 4.92525 19.0747 3.75 17.625 3.75H6.375C4.92525 3.75 3.75 4.92525 3.75 6.375V17.625C3.75 17.9249 3.80292 18.2121 3.89551 18.4805L8.09473 14.2822L8.15137 14.2305C8.44595 13.9902 8.88067 14.0076 9.15527 14.2822L10.875 16.002L15.4072 11.4697L15.4639 11.418C15.7584 11.1777 16.1932 11.1951 16.4678 11.4697L20.25 15.252V6.375ZM10.5 8.0625C10.5 9.40869 9.40869 10.5 8.0625 10.5C6.71631 10.5 5.625 9.40869 5.625 8.0625C5.625 6.71631 6.71631 5.625 8.0625 5.625C9.40869 5.625 10.5 6.71631 10.5 8.0625ZM21.75 17.625C21.75 19.9032 19.9032 21.75 17.625 21.75H6.375C4.09683 21.75 2.25 19.9032 2.25 17.625V6.375C2.25 4.09683 4.09683 2.25 6.375 2.25H17.625C19.9032 2.25 21.75 4.09683 21.75 6.375V17.625Z" fill="currentColor"/>
</svg>
