<svg width="24" height="24" viewBox="0 0 24 24" fill="none" xmlns="http://www.w3.org/2000/svg">
<path d="M8.95557 21.9408C10.2363 21.9408 10.798 21.0532 12.3933 21.0532C13.9887 21.0532 14.3706 21.9071 15.7862 21.9071C17.2017 21.9071 18.1117 20.5814 18.9993 19.2782C19.9879 17.784 20.3924 16.3235 20.4261 16.2561C20.3362 16.2336 17.6624 15.0989 17.6624 11.942C17.6624 9.20077 19.7745 7.96497 19.8868 7.87509C18.4937 5.80793 16.3704 5.76299 15.7974 5.76299C14.2358 5.76299 12.9551 6.7404 12.1462 6.7404C11.2811 6.7404 10.1352 5.81917 8.77582 5.81917C6.19187 5.81917 3.57422 8.02114 3.57422 12.1667C3.57422 14.7394 4.55163 17.4694 5.74249 19.2332C6.76483 20.7274 7.6636 21.952 8.95557 21.952V21.9408ZM12.2473 5.51583C13.1798 5.51583 14.3594 4.86423 15.0559 3.99917C15.6851 3.21275 16.1457 2.11176 16.1457 1.01077C16.1457 0.864722 16.1345 0.707438 16.1008 0.595093C15.0559 0.640031 13.8089 1.31411 13.0562 2.22411C12.4608 2.92065 11.9215 3.99917 11.9215 5.11139C11.9215 5.26867 11.944 5.43719 11.9664 5.49336C12.0338 5.5046 12.135 5.51583 12.2473 5.51583Z" fill="white"/>
</svg>
