<svg width="24" height="24" viewBox="0 0 24 24" fill="none" xmlns="http://www.w3.org/2000/svg">
<path d="M18.9812 2.11676C20.5955 1.55697 22.1446 3.10594 21.5847 4.72028L15.823 21.3267C15.1996 23.1223 12.6778 23.1712 11.9851 21.4009L9.34838 14.6627C9.29291 14.5209 9.18057 14.4086 9.03881 14.3531L2.30053 11.7164C0.530281 11.0237 0.579017 8.50178 2.37475 7.87848L18.9812 2.11676ZM10.7136 14.0474C10.7236 14.0704 10.7357 14.0924 10.7449 14.1158L13.3816 20.855C13.5666 21.3271 14.2398 21.3136 14.406 20.8345L19.9714 4.78961L10.7136 14.0474ZM2.86694 9.29547C2.38788 9.46168 2.37447 10.1339 2.84643 10.3189L9.58569 12.9566C9.60867 12.9656 9.63052 12.9771 9.65307 12.9869L18.9109 3.72809L2.86694 9.29547Z" fill="#171717"/>
</svg>
