<svg width="24" height="24" viewBox="0 0 24 24" fill="none" xmlns="http://www.w3.org/2000/svg">
<path d="M20.8501 20.5123C20.8501 18.8518 20.1648 17.3633 18.7573 16.2711C17.3331 15.166 15.1123 14.4264 11.9995 14.4264C8.88698 14.4265 6.66685 15.166 5.24268 16.2711C3.8351 17.3633 3.14993 18.8518 3.1499 20.5123C3.1499 20.6302 3.19243 20.7229 3.24365 20.7799C3.29364 20.8355 3.34252 20.8501 3.37842 20.8502H20.6206C20.6565 20.8502 20.7053 20.8354 20.7554 20.7799C20.8066 20.7229 20.8501 20.6303 20.8501 20.5123ZM14.8501 5.99963C14.8499 4.4258 13.5734 3.15002 11.9995 3.15002C10.4258 3.15023 9.15011 4.42593 9.1499 5.99963C9.1499 7.57352 10.4257 8.85001 11.9995 8.85022C13.5735 8.85022 14.8501 7.57365 14.8501 5.99963ZM22.3501 20.5123C22.3501 21.4509 21.6478 22.3502 20.6206 22.3502H3.37842C2.35141 22.35 1.6499 21.4508 1.6499 20.5123C1.64993 18.3974 2.54182 16.4675 4.32275 15.0856C6.08703 13.7166 8.66679 12.9265 11.9995 12.9264C15.3325 12.9264 17.9129 13.7165 19.6772 15.0856C21.4581 16.4675 22.3501 18.3975 22.3501 20.5123ZM16.3501 5.99963C16.3501 8.40207 14.4019 10.3502 11.9995 10.3502C9.59725 10.35 7.6499 8.40194 7.6499 5.99963C7.65011 3.5975 9.59738 1.65023 11.9995 1.65002C14.4018 1.65002 16.3499 3.59737 16.3501 5.99963Z" fill="#171717"/>
</svg>
