<svg width="24" height="24" viewBox="0 0 24 24" fill="none" xmlns="http://www.w3.org/2000/svg">
<path d="M20.248 12C20.248 7.44358 16.5548 3.75 11.999 3.75C7.44327 3.75007 3.75 7.44363 3.75 12C3.75 16.5564 7.44327 20.2499 11.999 20.25C13.467 20.25 14.8435 19.8671 16.0361 19.1963C16.2032 19.1024 16.4 19.0756 16.5859 19.1221L20.0996 20L19.4912 15.7412C19.4715 15.6023 19.4911 15.4603 19.5479 15.332C19.9978 14.314 20.248 13.1873 20.248 12ZM21.748 12C21.748 13.3206 21.4818 14.58 21.0049 15.7305L21.7422 20.8936C21.7773 21.1406 21.6873 21.3885 21.502 21.5557C21.3166 21.7229 21.0606 21.787 20.8184 21.7266L16.5049 20.6475C15.1565 21.3515 13.6233 21.75 11.999 21.75C6.61471 21.7499 2.25 17.3847 2.25 12C2.25 6.61533 6.61471 2.25007 11.999 2.25C17.3834 2.25 21.748 6.61529 21.748 12Z" fill="#171717"/>
</svg>
