<svg width="24" height="24" viewBox="0 0 24 24" fill="none" xmlns="http://www.w3.org/2000/svg">
<path d="M3.44971 19.1998V4.80042C3.44972 3.06073 4.86041 1.65002 6.6001 1.65002H15.6694C16.2193 1.65002 16.736 1.88098 17.106 2.27014C17.4512 2.63341 17.989 3.1836 18.5005 3.64124C18.9432 4.03735 19.6198 4.72939 20.0103 5.1344C20.3602 5.49743 20.5503 5.98043 20.5503 6.47815L20.5493 19.1998C20.5493 20.9394 19.1395 22.3501 17.3999 22.3502H6.6001C4.8604 22.3502 3.4497 20.9395 3.44971 19.1998ZM15.6001 13.65L15.6772 13.6539C16.0552 13.6926 16.3501 14.0119 16.3501 14.4C16.3501 14.7882 16.0552 15.1075 15.6772 15.1461L15.6001 15.15H8.3999C7.98577 15.1499 7.6499 14.8142 7.6499 14.4C7.6499 13.9859 7.98577 13.6501 8.3999 13.65H15.6001ZM15.6001 10.0504L15.6772 10.0543C16.0552 10.093 16.3501 10.4123 16.3501 10.8004C16.3499 11.1884 16.0551 11.5079 15.6772 11.5465L15.6001 11.5504H8.3999C7.9859 11.5503 7.65011 11.2144 7.6499 10.8004C7.6499 10.3863 7.98577 10.0505 8.3999 10.0504H15.6001ZM10.8003 6.44983L10.8765 6.45374C11.2547 6.49199 11.5502 6.81148 11.5503 7.19983C11.5503 7.58825 11.2548 7.90764 10.8765 7.94592L10.8003 7.94983H8.3999C7.98577 7.94973 7.6499 7.61398 7.6499 7.19983C7.65001 6.78577 7.98584 6.44993 8.3999 6.44983H10.8003ZM15.7505 5.99963C15.7505 6.24804 15.9514 6.44963 16.1997 6.44983H19.0474C19.0409 6.34471 18.9999 6.24778 18.9302 6.17542C18.5331 5.76352 17.894 5.11232 17.4995 4.7594C16.9429 4.26135 16.3725 3.67725 16.0181 3.30432C15.9429 3.22526 15.8486 3.1756 15.7505 3.15784V5.99963ZM4.94971 19.1998C4.9497 20.1111 5.68883 20.8502 6.6001 20.8502H17.3999C18.3111 20.8501 19.0493 20.111 19.0493 19.1998L19.0503 7.94983H16.1997C15.1229 7.94963 14.2505 7.07646 14.2505 5.99963V3.15002H6.6001C5.68883 3.15002 4.94971 3.88915 4.94971 4.80042V19.1998Z" fill="#171717"/>
</svg>
