<svg width="currentWidth" height="currentHeight" viewBox="0 0 24 24" fill="none" xmlns="http://www.w3.org/2000/svg">
<path d="M1.6499 21.6002V17.9996C1.65017 15.5974 3.59824 13.65 6.00049 13.65H12.6001L12.6763 13.6539C13.0546 13.6922 13.3501 14.0116 13.3501 14.4C13.3501 14.7885 13.0546 15.1079 12.6763 15.1461L12.6001 15.15H6.00049C4.42662 15.15 3.15012 16.4258 3.1499 17.9996V21.6002C3.14979 22.0144 2.81404 22.3502 2.3999 22.3502C1.98578 22.3502 1.65001 22.0143 1.6499 21.6002ZM18.1499 18.2994V16.3502H16.1997C15.7856 16.3501 15.4498 16.0143 15.4497 15.6002C15.4497 15.1861 15.7856 14.8503 16.1997 14.8502H18.1499V12.9C18.1499 12.4858 18.4857 12.15 18.8999 12.15C19.3141 12.15 19.6499 12.4858 19.6499 12.9V14.8502H21.6001L21.6763 14.8541C22.0546 14.8924 22.3501 15.2118 22.3501 15.6002C22.35 15.9886 22.0546 16.3081 21.6763 16.3463L21.6001 16.3502H19.6499V18.2994C19.6499 18.7137 19.3141 19.0494 18.8999 19.0494C18.4857 19.0494 18.1499 18.7137 18.1499 18.2994ZM13.6499 5.99963C13.6497 4.42593 12.374 3.15024 10.8003 3.15002C9.22641 3.15002 7.94992 4.4258 7.94971 5.99963C7.94971 7.57365 9.22628 8.85022 10.8003 8.85022C12.3741 8.85001 13.6499 7.57351 13.6499 5.99963ZM15.1499 5.99963C15.1499 8.40194 13.2026 10.35 10.8003 10.3502C8.39785 10.3502 6.44971 8.40207 6.44971 5.99963C6.44992 3.59737 8.39798 1.65002 10.8003 1.65002C13.2024 1.65024 15.1497 3.59751 15.1499 5.99963Z" fill="currentColor"/>
</svg>
