<svg width="currentWidth" height="currentHeight" viewBox="0 0 24 24" fill="none" xmlns="http://www.w3.org/2000/svg">
<path d="M11.25 19.2004V12.7502H4.7998C4.38566 12.7502 4.04991 12.4143 4.0498 12.0002C4.0498 11.586 4.38559 11.2502 4.7998 11.2502H11.25V4.79999C11.25 4.38577 11.5858 4.04999 12 4.04999C12.4141 4.05009 12.75 4.38584 12.75 4.79999V11.2502H19.2002L19.2764 11.2541C19.6546 11.2925 19.9502 11.6118 19.9502 12.0002C19.9501 12.3885 19.6546 12.7079 19.2764 12.7463L19.2002 12.7502H12.75V19.2004C12.7498 19.6143 12.414 19.9503 12 19.9504C11.5859 19.9504 11.2502 19.6144 11.25 19.2004Z" fill="currentColor"/>
</svg>
