<svg width="281" height="159" viewBox="0 0 281 159" fill="none" xmlns="http://www.w3.org/2000/svg">
<rect width="280" height="158" transform="translate(0.0458984 0.0278931)" fill="black"/>
<path fill-rule="evenodd" clip-rule="evenodd" d="M169.789 65.0699C177.579 57.2801 190.419 55.27 198.549 63.0699L199.339 60.1695C199.629 59.0998 200.729 58.4801 201.789 58.7701L208.549 60.6099C209.619 60.9 210.249 62 209.959 63.0699L196.198 113.52L196.209 113.49C195.019 117.86 192.738 121.9 189.398 124.96C189.108 125.22 188.818 125.48 188.518 125.73C185.508 128.23 181.938 129.99 178.158 130.74C174.378 131.49 170.469 131.22 166.929 129.78C163.379 128.34 160.419 125.82 158.469 122.52C156.519 119.23 155.709 115.42 155.969 111.58C156.189 108.43 157.128 105.33 158.648 102.52C159.178 101.54 160.449 101.25 161.379 101.86L167.209 105.7C168.089 106.28 168.459 107.42 168.009 108.38C167.379 109.7 167.028 111.06 166.938 112.35C166.818 114.15 167.209 115.711 167.919 116.92C168.629 118.12 169.699 119.04 171.049 119.59C172.419 120.15 174.119 120.33 175.999 119.95C177.879 119.58 179.789 118.67 181.469 117.27L181.518 117.23C183.438 115.62 184.818 113.47 185.478 111.06L189.148 97.65C182.038 100.54 173.808 99.8599 168.059 94.1099C159.949 85.9999 161.909 72.9399 169.789 65.0699ZM191.059 71.1197C188.388 68.4499 182.398 68.0303 177.568 72.8502C172.749 77.6701 173.159 83.6605 175.839 86.3404C178.509 89.0101 184.499 89.4298 189.329 84.6099C194.149 79.79 193.738 73.7997 191.059 71.1197Z" fill="white"/>
<path d="M65.7987 38.6695C66.1887 38.4198 66.7089 38.5604 66.9189 38.9703L72.9687 50.94C73.2686 51.54 72.7183 52.2204 72.0683 52.0504L69.1484 51.2603L56.2685 99.2095L56.2587 99.2203C56.0287 100.09 55.2288 100.7 54.329 100.7H43.3388C42.4188 100.7 41.6184 100.08 41.3984 99.19L31.3486 61.4996C31.0588 60.4298 31.6987 59.3404 32.7685 59.0504L40.4989 56.9801C41.5688 56.6903 42.6582 57.3303 42.9482 58.3902L48.8788 80.5396L57.5585 48.1402L54.7587 47.3804C54.1087 47.2004 53.969 46.3403 54.539 45.9703L65.7987 38.6695Z" fill="white"/>
<path fill-rule="evenodd" clip-rule="evenodd" d="M153.799 58.3902C154.079 57.3202 155.179 56.6901 156.249 56.9801L163.978 59.0504C165.048 59.3403 165.678 60.4297 165.389 61.4996L155.299 99.1695C155.009 100.24 153.919 100.87 152.849 100.59L145.119 98.5201C144.639 98.3901 144.238 98.0895 143.978 97.7095C136.888 100.549 128.719 99.8397 122.999 94.1197C114.889 86.0097 116.848 72.9496 124.728 65.0797C132.278 57.5297 144.578 55.4105 152.728 62.3805L153.799 58.4V58.3902ZM145.999 71.1197C143.319 68.4498 137.329 68.0302 132.509 72.8502C127.689 77.6702 128.099 83.6604 130.779 86.3404C133.449 89.01 139.449 89.4295 144.268 84.6099C149.088 79.7899 148.679 73.7997 145.999 71.1197Z" fill="white"/>
<path d="M98.8193 28.3902C99.1092 27.3204 100.199 26.6903 101.268 26.9801L108.999 29.0504C110.069 29.3404 110.699 30.4298 110.409 31.4996L92.289 99.1197C91.999 100.19 90.9088 100.82 89.8388 100.53L82.1093 98.4595C81.0394 98.1696 80.4095 97.0803 80.6894 96.0103L98.8193 28.3902Z" fill="white"/>
<path d="M116.819 28.3902C117.109 27.3204 118.199 26.6903 119.268 26.9801L126.999 29.0504C128.069 29.3404 128.699 30.4298 128.409 31.4996L110.289 99.1197C109.999 100.19 108.909 100.82 107.839 100.53L100.109 98.4595C99.0394 98.1696 98.4095 97.0803 98.6894 96.0103L116.819 28.3902Z" fill="white"/>
<path fill-rule="evenodd" clip-rule="evenodd" d="M229.768 59.1695C234.358 58.9195 238.868 60.2204 242.438 63.0904C242.458 63.1004 242.468 63.1205 242.488 63.1305C244.698 64.9204 246.339 67.3201 247.429 69.94L248.658 72.9097H248.668C249.078 73.9297 248.589 75.1003 247.559 75.5103L220.188 86.5699C220.798 87.4099 221.599 88.0804 222.549 88.5504C224.099 89.3102 226.129 89.5603 228.389 89.0103C230.129 88.5803 231.848 87.7095 233.368 86.4596C234.178 85.7896 235.378 85.8501 236.158 86.5699L241.299 91.3199C242.119 92.0699 242.128 93.3805 241.309 94.1304C238.379 96.8103 234.829 98.7598 231.009 99.6998C226.529 100.8 221.819 100.45 217.719 98.44C213.589 96.4201 210.488 92.9203 208.948 88.5904C207.418 84.2904 207.539 79.57 209.049 75.19C210.549 70.8201 213.388 66.9201 217.068 64.0601C220.748 61.1901 225.198 59.4295 229.768 59.1695ZM234.737 71.1138C233.569 70.4379 232.083 70.0601 230.368 70.1597C228.218 70.2798 225.878 71.1399 223.828 72.7398C222.318 73.9098 221.098 75.3801 220.238 76.9801L234.737 71.1138C234.741 71.1159 234.744 71.1177 234.748 71.1197V71.1099L234.737 71.1138Z" fill="white"/>
<path d="M76.4394 44.3902C76.7293 43.3203 77.8187 42.6903 78.8886 42.9801L86.6191 45.0504C87.6888 45.3404 88.3189 46.4298 88.0292 47.4996L74.289 98.7799C73.999 99.8499 72.9088 100.48 71.8388 100.19L64.1093 98.1197C63.0393 97.8297 62.4091 96.7395 62.6991 95.6695L76.4394 44.4V44.3902Z" fill="white"/>
<path d="M80.7685 29.3902C81.0585 28.3203 82.1487 27.6902 83.2187 27.9801L90.9491 30.0504C92.0188 30.3405 92.649 31.4298 92.3593 32.4996L90.289 40.2301C89.999 41.3 88.9088 41.9302 87.8388 41.6402L80.1093 39.5699C79.0393 39.2799 78.4091 38.1897 78.6991 37.1197L80.7685 29.3902Z" fill="white"/>
</svg>
