<svg width="currentWidth" height="currentHeight" viewBox="0 0 281 159" fill="none" xmlns="http://www.w3.org/2000/svg">
<path fill-rule="evenodd" clip-rule="evenodd" d="M170.508 65.0699C178.298 57.2801 191.138 55.27 199.268 63.0699L200.058 60.1695C200.348 59.0998 201.448 58.4801 202.508 58.7701L209.268 60.6099C210.338 60.9 210.968 62 210.678 63.0699L196.917 113.52L196.928 113.49C195.738 117.86 193.458 121.9 190.118 124.96C189.828 125.22 189.538 125.48 189.238 125.73C186.228 128.23 182.657 129.99 178.877 130.74C175.097 131.49 171.188 131.22 167.648 129.78C164.098 128.34 161.138 125.82 159.188 122.52C157.238 119.23 156.428 115.42 156.688 111.58C156.908 108.43 157.848 105.33 159.368 102.52C159.898 101.54 161.168 101.25 162.098 101.86L167.928 105.7C168.808 106.28 169.178 107.42 168.728 108.38C168.098 109.7 167.748 111.06 167.658 112.35C167.538 114.15 167.928 115.711 168.638 116.92C169.348 118.12 170.418 119.04 171.768 119.59C173.138 120.15 174.838 120.33 176.718 119.95C178.598 119.58 180.508 118.67 182.188 117.27L182.238 117.23C184.158 115.62 185.538 113.47 186.198 111.06L189.868 97.65C182.758 100.54 174.528 99.8599 168.778 94.1099C160.668 85.9999 162.628 72.9399 170.508 65.0699ZM191.778 71.1197C189.108 68.4499 183.117 68.0303 178.288 72.8502C173.468 77.6701 173.878 83.6605 176.558 86.3404C179.228 89.0101 185.218 89.4298 190.048 84.6099C194.868 79.79 194.458 73.7997 191.778 71.1197Z" fill="currentColor"/>
<path d="M66.518 38.6695C66.908 38.4198 67.4282 38.5604 67.6381 38.9703L73.6879 50.94C73.9878 51.54 73.4375 52.2204 72.7875 52.0504L69.8676 51.2603L56.9877 99.2095L56.9779 99.2203C56.7479 100.09 55.948 100.7 55.0483 100.7H44.058C43.138 100.7 42.3376 100.08 42.1176 99.19L32.0678 61.4996C31.7781 60.4298 32.418 59.3404 33.4877 59.0504L41.2182 56.9801C42.2881 56.6903 43.3774 57.3303 43.6674 58.3902L49.5981 80.5396L58.2778 48.1402L55.4779 47.3804C54.8279 47.2004 54.6882 46.3403 55.2582 45.9703L66.518 38.6695Z" fill="currentColor"/>
<path fill-rule="evenodd" clip-rule="evenodd" d="M154.518 58.3902C154.798 57.3202 155.898 56.6901 156.968 56.9801L164.698 59.0504C165.768 59.3403 166.398 60.4297 166.108 61.4996L156.018 99.1695C155.728 100.24 154.638 100.87 153.568 100.59L145.838 98.5201C145.358 98.3901 144.958 98.0895 144.698 97.7095C137.608 100.549 129.438 99.8397 123.718 94.1197C115.608 86.0097 117.568 72.9496 125.448 65.0797C132.998 57.5297 145.298 55.4105 153.448 62.3805L154.518 58.4V58.3902ZM146.718 71.1197C144.038 68.4498 138.048 68.0302 133.228 72.8502C128.408 77.6702 128.818 83.6604 131.498 86.3404C134.169 89.01 140.168 89.4295 144.988 84.6099C149.808 79.7899 149.398 73.7997 146.718 71.1197Z" fill="currentColor"/>
<path d="M99.5385 28.3902C99.8285 27.3204 100.918 26.6903 101.988 26.9801L109.718 29.0504C110.788 29.3404 111.418 30.4298 111.128 31.4996L93.0082 99.1197C92.7182 100.19 91.628 100.82 90.558 100.53L82.8285 98.4595C81.7586 98.1696 81.1288 97.0803 81.4086 96.0103L99.5385 28.3902Z" fill="currentColor"/>
<path d="M117.538 28.3902C117.828 27.3204 118.918 26.6903 119.988 26.9801L127.718 29.0504C128.788 29.3404 129.418 30.4298 129.128 31.4996L111.008 99.1197C110.718 100.19 109.628 100.82 108.558 100.53L100.829 98.4595C99.7586 98.1696 99.1288 97.0803 99.4086 96.0103L117.538 28.3902Z" fill="currentColor"/>
<path fill-rule="evenodd" clip-rule="evenodd" d="M230.488 59.1695C235.078 58.9195 239.588 60.2204 243.158 63.0904C243.178 63.1004 243.188 63.1205 243.207 63.1305C245.417 64.9204 247.058 67.3201 248.148 69.94L249.377 72.9097H249.387C249.797 73.9297 249.308 75.1003 248.278 75.5103L220.908 86.5699C221.518 87.4099 222.318 88.0804 223.268 88.5504C224.818 89.3102 226.848 89.5603 229.108 89.0103C230.848 88.5803 232.567 87.7095 234.087 86.4596C234.897 85.7896 236.097 85.8501 236.877 86.5699L242.018 91.3199C242.838 92.0699 242.848 93.3805 242.028 94.1304C239.098 96.8103 235.548 98.7598 231.728 99.6998C227.248 100.8 222.538 100.45 218.438 98.44C214.308 96.4201 211.207 92.9203 209.667 88.5904C208.137 84.2904 208.258 79.57 209.768 75.19C211.268 70.8201 214.108 66.9201 217.788 64.0601C221.468 61.1901 225.918 59.4295 230.488 59.1695ZM235.456 71.1138C234.288 70.4379 232.802 70.0601 231.087 70.1597C228.937 70.2798 226.597 71.1399 224.547 72.7398C223.037 73.9098 221.817 75.3801 220.957 76.9801L235.456 71.1138C235.46 71.1159 235.464 71.1177 235.467 71.1197V71.1099L235.456 71.1138Z" fill="currentColor"/>
<path d="M77.1586 44.3902C77.4486 43.3203 78.5379 42.6903 79.6078 42.9801L87.3383 45.0504C88.408 45.3404 89.0382 46.4298 88.7485 47.4996L75.0082 98.7799C74.7182 99.8499 73.628 100.48 72.558 100.19L64.8285 98.1197C63.7585 97.8297 63.1284 96.7395 63.4184 95.6695L77.1586 44.4V44.3902Z" fill="currentColor"/>
<path d="M81.4877 29.3902C81.7777 28.3203 82.868 27.6902 83.9379 27.9801L91.6684 30.0504C92.738 30.3405 93.3682 31.4298 93.0785 32.4996L91.0082 40.2301C90.7182 41.3 89.628 41.9302 88.558 41.6402L80.8285 39.5699C79.7585 39.2799 79.1284 38.1897 79.4184 37.1197L81.4877 29.3902Z" fill="currentColor"/>
</svg>
