<svg width="281" height="159" viewBox="0 0 281 159" fill="none" xmlns="http://www.w3.org/2000/svg">
<rect width="280" height="158" transform="translate(0.619141 0.0278931)" fill="#00A6F4"/>
<path fill-rule="evenodd" clip-rule="evenodd" d="M170.362 65.0699C178.152 57.2801 190.992 55.27 199.122 63.0699L199.912 60.1695C200.202 59.0998 201.302 58.4801 202.362 58.7701L209.122 60.6099C210.192 60.9 210.822 62 210.532 63.0699L196.771 113.52L196.782 113.49C195.592 117.86 193.312 121.9 189.972 124.96C189.682 125.22 189.392 125.48 189.092 125.73C186.082 128.23 182.511 129.99 178.731 130.74C174.951 131.49 171.042 131.22 167.502 129.78C163.952 128.34 160.992 125.82 159.042 122.52C157.092 119.23 156.282 115.42 156.542 111.58C156.762 108.43 157.702 105.33 159.222 102.52C159.752 101.54 161.022 101.25 161.952 101.86L167.782 105.7C168.662 106.28 169.032 107.42 168.582 108.38C167.952 109.7 167.602 111.06 167.512 112.35C167.392 114.15 167.782 115.711 168.492 116.92C169.202 118.12 170.272 119.04 171.622 119.59C172.992 120.15 174.692 120.33 176.572 119.95C178.452 119.58 180.362 118.67 182.042 117.27L182.092 117.23C184.012 115.62 185.392 113.47 186.052 111.06L189.722 97.65C182.612 100.54 174.382 99.8599 168.632 94.1099C160.522 85.9999 162.482 72.9399 170.362 65.0699ZM191.632 71.1197C188.962 68.4499 182.971 68.0303 178.142 72.8502C173.322 77.6701 173.732 83.6605 176.412 86.3404C179.082 89.0101 185.072 89.4298 189.902 84.6099C194.722 79.79 194.312 73.7997 191.632 71.1197Z" fill="white"/>
<path d="M66.372 38.6695C66.762 38.4198 67.2822 38.5604 67.4921 38.9703L73.5419 50.94C73.8419 51.54 73.2915 52.2204 72.6415 52.0504L69.7216 51.2603L56.8417 99.2095L56.8319 99.2203C56.6019 100.09 55.802 100.7 54.9023 100.7H43.912C42.992 100.7 42.1916 100.08 41.9716 99.19L31.9218 61.4996C31.6321 60.4298 32.272 59.3404 33.3417 59.0504L41.0722 56.9801C42.1421 56.6903 43.2314 57.3303 43.5214 58.3902L49.4521 80.5396L58.1318 48.1402L55.3319 47.3804C54.6819 47.2004 54.5422 46.3403 55.1122 45.9703L66.372 38.6695Z" fill="white"/>
<path fill-rule="evenodd" clip-rule="evenodd" d="M154.372 58.3902C154.652 57.3202 155.752 56.6901 156.822 56.9801L164.552 59.0504C165.622 59.3403 166.252 60.4297 165.962 61.4996L155.872 99.1695C155.582 100.24 154.492 100.87 153.422 100.59L145.692 98.5201C145.212 98.3901 144.812 98.0895 144.552 97.7095C137.462 100.549 129.292 99.8397 123.572 94.1197C115.462 86.0097 117.422 72.9496 125.302 65.0797C132.852 57.5297 145.152 55.4105 153.302 62.3805L154.372 58.4V58.3902ZM146.572 71.1197C143.892 68.4498 137.902 68.0302 133.082 72.8502C128.262 77.6702 128.672 83.6604 131.352 86.3404C134.023 89.01 140.022 89.4295 144.842 84.6099C149.662 79.7899 149.252 73.7997 146.572 71.1197Z" fill="white"/>
<path d="M99.3925 28.3902C99.6825 27.3204 100.772 26.6903 101.842 26.9801L109.572 29.0504C110.642 29.3404 111.272 30.4298 110.982 31.4996L92.8622 99.1197C92.5722 100.19 91.482 100.82 90.412 100.53L82.6825 98.4595C81.6126 98.1696 80.9828 97.0803 81.2626 96.0103L99.3925 28.3902Z" fill="white"/>
<path d="M117.392 28.3902C117.682 27.3204 118.772 26.6903 119.842 26.9801L127.572 29.0504C128.642 29.3404 129.272 30.4298 128.982 31.4996L110.862 99.1197C110.572 100.19 109.482 100.82 108.412 100.53L100.683 98.4595C99.6126 98.1696 98.9828 97.0803 99.2626 96.0103L117.392 28.3902Z" fill="white"/>
<path fill-rule="evenodd" clip-rule="evenodd" d="M230.342 59.1695C234.932 58.9195 239.442 60.2204 243.012 63.0904C243.032 63.1004 243.042 63.1205 243.061 63.1305C245.271 64.9204 246.912 67.3201 248.002 69.94L249.231 72.9097H249.241C249.651 73.9297 249.162 75.1003 248.132 75.5103L220.762 86.5699C221.372 87.4099 222.172 88.0804 223.122 88.5504C224.672 89.3102 226.702 89.5603 228.962 89.0103C230.702 88.5803 232.421 87.7095 233.941 86.4596C234.751 85.7896 235.951 85.8501 236.731 86.5699L241.872 91.3199C242.692 92.0699 242.702 93.3805 241.882 94.1304C238.952 96.8103 235.402 98.7598 231.582 99.6998C227.102 100.8 222.392 100.45 218.292 98.44C214.162 96.4201 211.061 92.9203 209.521 88.5904C207.991 84.2904 208.112 79.57 209.622 75.19C211.122 70.8201 213.962 66.9201 217.642 64.0601C221.322 61.1901 225.772 59.4295 230.342 59.1695ZM235.31 71.1138C234.142 70.4379 232.656 70.0601 230.941 70.1597C228.791 70.2798 226.451 71.1399 224.401 72.7398C222.891 73.9098 221.671 75.3801 220.811 76.9801L235.31 71.1138C235.314 71.1159 235.318 71.1177 235.321 71.1197V71.1099L235.31 71.1138Z" fill="white"/>
<path d="M77.0126 44.3902C77.3026 43.3203 78.3919 42.6903 79.4618 42.9801L87.1923 45.0504C88.262 45.3404 88.8922 46.4298 88.6025 47.4996L74.8622 98.7799C74.5722 99.8499 73.482 100.48 72.412 100.19L64.6825 98.1197C63.6125 97.8297 62.9824 96.7395 63.2724 95.6695L77.0126 44.4V44.3902Z" fill="white"/>
<path d="M81.3417 29.3902C81.6317 28.3203 82.722 27.6902 83.7919 27.9801L91.5224 30.0504C92.592 30.3405 93.2222 31.4298 92.9325 32.4996L90.8622 40.2301C90.5722 41.3 89.482 41.9302 88.412 41.6402L80.6825 39.5699C79.6125 39.2799 78.9824 38.1897 79.2724 37.1197L81.3417 29.3902Z" fill="white"/>
</svg>
