<svg width="281" height="159" viewBox="0 0 281 159" fill="none" xmlns="http://www.w3.org/2000/svg">
<path fill-rule="evenodd" clip-rule="evenodd" d="M170.216 65.0699C178.006 57.2801 190.846 55.27 198.976 63.0699L199.766 60.1695C200.056 59.0998 201.156 58.4801 202.216 58.7701L208.976 60.6099C210.045 60.9 210.676 62 210.386 63.0699L196.625 113.52L196.636 113.49C195.446 117.86 193.165 121.9 189.825 124.96C189.535 125.22 189.245 125.48 188.945 125.73C185.935 128.23 182.365 129.99 178.585 130.74C174.805 131.49 170.895 131.22 167.355 129.78C163.805 128.34 160.845 125.82 158.895 122.52C156.945 119.23 156.135 115.42 156.395 111.58C156.615 108.43 157.555 105.33 159.075 102.52C159.605 101.54 160.876 101.25 161.806 101.86L167.636 105.7C168.516 106.28 168.885 107.42 168.435 108.38C167.806 109.7 167.455 111.06 167.365 112.35C167.245 114.15 167.636 115.711 168.346 116.92C169.056 118.12 170.126 119.04 171.476 119.59C172.845 120.15 174.546 120.33 176.426 119.95C178.306 119.58 180.216 118.67 181.895 117.27L181.945 117.23C183.865 115.62 185.245 113.47 185.905 111.06L189.575 97.65C182.465 100.54 174.235 99.8599 168.485 94.1099C160.375 85.9999 162.336 72.9399 170.216 65.0699ZM191.485 71.1197C188.815 68.4499 182.825 68.0303 177.995 72.8502C173.175 77.6701 173.586 83.6605 176.266 86.3404C178.936 89.0101 184.926 89.4298 189.756 84.6099C194.576 79.79 194.165 73.7997 191.485 71.1197Z" fill="#00A6F4"/>
<path d="M66.2255 38.6695C66.6155 38.4198 67.1357 38.5604 67.3456 38.9703L73.3954 50.94C73.6954 51.54 73.145 52.2204 72.495 52.0504L69.5751 51.2603L56.6952 99.2095L56.6855 99.2203C56.4554 100.09 55.6555 100.7 54.7558 100.7H43.7655C42.8455 100.7 42.0451 100.08 41.8251 99.19L31.7753 61.4996C31.4856 60.4298 32.1255 59.3404 33.1952 59.0504L40.9257 56.9801C41.9956 56.6903 43.0849 57.3303 43.3749 58.3902L49.3056 80.5396L57.9853 48.1402L55.1855 47.3804C54.5355 47.2004 54.3957 46.3403 54.9657 45.9703L66.2255 38.6695Z" fill="#00A6F4"/>
<path fill-rule="evenodd" clip-rule="evenodd" d="M154.226 58.3902C154.506 57.3202 155.606 56.6901 156.676 56.9801L164.405 59.0504C165.475 59.3403 166.105 60.4297 165.815 61.4996L155.726 99.1695C155.436 100.24 154.345 100.87 153.275 100.59L145.546 98.5201C145.066 98.3901 144.665 98.0895 144.405 97.7095C137.315 100.549 129.146 99.8397 123.426 94.1197C115.316 86.0097 117.275 72.9496 125.155 65.0797C132.705 57.5297 145.005 55.4105 153.155 62.3805L154.226 58.4V58.3902ZM146.426 71.1197C143.746 68.4498 137.755 68.0302 132.935 72.8502C128.116 77.6702 128.526 83.6604 131.206 86.3404C133.876 89.01 139.876 89.4295 144.695 84.6099C149.515 79.7899 149.106 73.7997 146.426 71.1197Z" fill="#00A6F4"/>
<path d="M99.246 28.3902C99.536 27.3204 100.625 26.6903 101.695 26.9801L109.426 29.0504C110.495 29.3404 111.126 30.4298 110.836 31.4996L92.7157 99.1197C92.4257 100.19 91.3355 100.82 90.2655 100.53L82.5361 98.4595C81.4661 98.1696 80.8363 97.0803 81.1161 96.0103L99.246 28.3902Z" fill="#00A6F4"/>
<path d="M117.246 28.3902C117.536 27.3204 118.625 26.6903 119.695 26.9801L127.426 29.0504C128.495 29.3404 129.126 30.4298 128.836 31.4996L110.716 99.1197C110.426 100.19 109.336 100.82 108.266 100.53L100.536 98.4595C99.4661 98.1696 98.8363 97.0803 99.1161 96.0103L117.246 28.3902Z" fill="#00A6F4"/>
<path fill-rule="evenodd" clip-rule="evenodd" d="M230.195 59.1695C234.785 58.9195 239.295 60.2204 242.865 63.0904C242.885 63.1004 242.895 63.1205 242.915 63.1305C245.125 64.9204 246.765 67.3201 247.855 69.94L249.085 72.9097H249.095C249.505 73.9297 249.015 75.1003 247.985 75.5103L220.615 86.5699C221.225 87.4099 222.026 88.0804 222.976 88.5504C224.525 89.3102 226.556 89.5603 228.815 89.0103C230.555 88.5803 232.275 87.7095 233.795 86.4596C234.605 85.7896 235.805 85.8501 236.585 86.5699L241.726 91.3199C242.545 92.0699 242.555 93.3805 241.735 94.1304C238.805 96.8103 235.255 98.7598 231.435 99.6998C226.956 100.8 222.245 100.45 218.145 98.44C214.016 96.4201 210.915 92.9203 209.375 88.5904C207.845 84.2904 207.966 79.57 209.476 75.19C210.975 70.8201 213.815 66.9201 217.495 64.0601C221.175 61.1901 225.625 59.4295 230.195 59.1695ZM235.164 71.1138C233.996 70.4379 232.509 70.0601 230.795 70.1597C228.645 70.2798 226.305 71.1399 224.255 72.7398C222.745 73.9098 221.525 75.3801 220.665 76.9801L235.164 71.1138C235.168 71.1159 235.171 71.1177 235.175 71.1197V71.1099L235.164 71.1138Z" fill="#00A6F4"/>
<path d="M76.8661 44.3902C77.1561 43.3203 78.2454 42.6903 79.3153 42.9801L87.0458 45.0504C88.1155 45.3404 88.7457 46.4298 88.456 47.4996L74.7157 98.7799C74.4257 99.8499 73.3355 100.48 72.2655 100.19L64.5361 98.1197C63.4661 97.8297 62.8359 96.7395 63.1259 95.6695L76.8661 44.4V44.3902Z" fill="#00A6F4"/>
<path d="M81.1952 29.3902C81.4852 28.3203 82.5755 27.6902 83.6454 27.9801L91.3759 30.0504C92.4456 30.3405 93.0757 31.4298 92.7861 32.4996L90.7157 40.2301C90.4257 41.3 89.3355 41.9302 88.2655 41.6402L80.5361 39.5699C79.4661 39.2799 78.8359 38.1897 79.1259 37.1197L81.1952 29.3902Z" fill="#00A6F4"/>
</svg>
