<svg width="281" height="159" viewBox="0 0 281 159" fill="none" xmlns="http://www.w3.org/2000/svg">
<rect width="280" height="158" transform="translate(0.192383 0.0278931)" fill="#00A6F4"/>
<path fill-rule="evenodd" clip-rule="evenodd" d="M169.935 65.0657C177.725 57.2761 190.565 55.266 198.695 63.0657L199.485 60.1663C199.775 59.0963 200.875 58.4759 201.935 58.7659L208.695 60.6058C209.765 60.8957 210.395 61.9959 210.105 63.0657L196.344 113.516L196.355 113.487C195.165 117.857 192.884 121.896 189.544 124.956C189.254 125.216 188.964 125.476 188.665 125.726C185.655 128.226 182.084 129.987 178.304 130.737C174.524 131.486 170.614 131.216 167.075 129.776C163.525 128.336 160.565 125.816 158.615 122.516C156.665 119.226 155.855 115.416 156.115 111.576C156.335 108.426 157.274 105.326 158.794 102.516C159.324 101.536 160.595 101.246 161.525 101.856L167.355 105.697C168.235 106.277 168.605 107.416 168.155 108.376C167.525 109.696 167.174 111.056 167.084 112.346C166.964 114.146 167.355 115.706 168.065 116.916C168.775 118.116 169.845 119.036 171.195 119.586C172.565 120.146 174.265 120.327 176.145 119.947C178.025 119.577 179.935 118.666 181.615 117.266L181.665 117.226C183.584 115.616 184.964 113.466 185.624 111.056L189.294 97.6458C182.184 100.536 173.955 99.8558 168.205 94.1058C160.095 85.9958 162.055 72.9357 169.935 65.0657ZM191.205 71.1165C188.535 68.4465 182.544 68.026 177.714 72.846C172.894 77.666 173.305 83.6563 175.985 86.3362C178.655 89.0061 184.645 89.4257 189.475 84.6058C194.295 79.7859 193.884 73.7965 191.205 71.1165Z" fill="white"/>
<path d="M65.9448 38.6663C66.3348 38.4164 66.8549 38.5561 67.0649 38.9661L73.1147 50.9359C73.4147 51.5359 72.8643 52.2162 72.2143 52.0462L69.2944 51.2562L56.4145 99.2064L56.4048 99.2161C56.1748 100.086 55.3749 100.696 54.4751 100.697H43.4848C42.5648 100.697 41.7644 100.076 41.5444 99.1859L31.4946 61.4964C31.2046 60.4264 31.8446 59.3363 32.9145 59.0462L40.645 56.9759C41.7148 56.6862 42.8041 57.3263 43.0942 58.386L49.0249 80.5364L57.7046 48.136L54.9048 47.3763C54.2548 47.1963 54.115 46.3361 54.685 45.9661L65.9448 38.6663Z" fill="white"/>
<path fill-rule="evenodd" clip-rule="evenodd" d="M153.945 58.386C154.225 57.3161 155.325 56.6859 156.395 56.9759L164.124 59.0462C165.194 59.3362 165.825 60.4264 165.535 61.4964L155.445 99.1663C155.155 100.236 154.065 100.866 152.995 100.586L145.265 98.5159C144.785 98.3859 144.384 98.0864 144.124 97.7064C137.035 100.546 128.865 99.8362 123.145 94.1165C115.035 86.0066 116.995 72.9465 124.874 65.0765C132.424 57.5265 144.724 55.4065 152.874 62.3763L153.945 58.3958V58.386ZM146.145 71.1165C143.465 68.4465 137.475 68.026 132.655 72.846C127.835 77.666 128.245 83.6562 130.925 86.3362C133.595 89.006 139.595 89.4256 144.415 84.6058C149.234 79.7859 148.825 73.7966 146.145 71.1165Z" fill="white"/>
<path d="M98.9653 28.386C99.2553 27.3163 100.345 26.6863 101.415 26.9759L109.145 29.0462C110.215 29.3362 110.845 30.4264 110.555 31.4964L92.435 99.1165C92.1449 100.186 91.0547 100.817 89.9848 100.527L82.2553 98.4564C81.1853 98.1664 80.5554 97.0762 80.8354 96.0062L98.9653 28.386Z" fill="white"/>
<path d="M116.965 28.386C117.255 27.3163 118.345 26.6862 119.415 26.9759L127.145 29.0462C128.215 29.3362 128.845 30.4264 128.555 31.4964L110.435 99.1165C110.145 100.186 109.055 100.817 107.985 100.527L100.255 98.4564C99.1853 98.1664 98.5554 97.0762 98.8354 96.0062L116.965 28.386Z" fill="white"/>
<path fill-rule="evenodd" clip-rule="evenodd" d="M229.915 59.1663C234.504 58.9163 239.014 60.2164 242.584 63.0862C242.604 63.0962 242.615 63.1163 242.635 63.1263C244.845 64.9162 246.485 67.3161 247.575 69.9359L248.805 72.9066H248.815C249.225 73.9265 248.734 75.0962 247.705 75.5062L220.334 86.5657C220.944 87.4057 221.745 88.0762 222.695 88.5462C224.245 89.3062 226.275 89.5561 228.535 89.0062C230.275 88.5762 231.995 87.7064 233.515 86.4564C234.325 85.7864 235.525 85.8458 236.305 86.5657L241.445 91.3157C242.265 92.0657 242.275 93.3763 241.455 94.1263C238.525 96.8062 234.975 98.7566 231.155 99.6966C226.675 100.797 221.965 100.446 217.865 98.4359C213.735 96.4159 210.635 92.9161 209.095 88.5862C207.565 84.2862 207.685 79.5659 209.195 75.1859C210.695 70.816 213.535 66.9159 217.215 64.056C220.895 61.1862 225.345 59.4264 229.915 59.1663ZM234.883 71.1097C233.715 70.4339 232.229 70.0569 230.515 70.1566C228.365 70.2766 226.025 71.1366 223.975 72.7366C222.465 73.9065 221.245 75.3761 220.385 76.9759L234.883 71.1097C234.887 71.1119 234.891 71.1143 234.895 71.1165V71.1058L234.883 71.1097Z" fill="white"/>
<path d="M76.5854 44.386C76.8755 43.3163 77.9648 42.6862 79.0346 42.9759L86.7651 45.0462C87.835 45.3363 88.4653 46.4264 88.1753 47.4964L74.435 98.7767C74.1449 99.8464 73.0547 100.476 71.9848 100.186L64.2553 98.1165C63.1854 97.8265 62.5552 96.7363 62.8452 95.6663L76.5854 44.3958V44.386Z" fill="white"/>
<path d="M80.9145 29.386C81.2045 28.3162 82.2948 27.6861 83.3647 27.9759L91.0952 30.0462C92.1651 30.3363 92.7953 31.4265 92.5053 32.4964L90.435 40.2259C90.145 41.2959 89.0548 41.926 87.9848 41.636L80.2553 39.5657C79.1854 39.2758 78.5554 38.1864 78.8452 37.1165L80.9145 29.386Z" fill="white"/>
<path d="M43.6149 100.706H43.4949C42.5749 100.706 41.7749 100.086 41.5549 99.1962L31.4949 61.4962C31.2049 60.4262 31.8449 59.3362 32.9149 59.0462L40.6449 56.9762C41.7149 56.6862 42.8049 57.3262 43.0949 58.3862L49.0249 80.5362L43.6249 100.706H43.6149Z" fill="#B5E4FF"/>
<path d="M43.6149 100.706H43.4949C42.5749 100.706 41.7749 100.086 41.5549 99.1962L31.4949 61.4962C31.2049 60.4262 31.8449 59.3362 32.9149 59.0462L40.6449 56.9762C41.7149 56.6862 42.8049 57.3262 43.0949 58.3862L49.0249 80.5362L43.6249 100.706H43.6149Z" fill="url(#paint0_linear_690_4086)"/>
<path fill-rule="evenodd" clip-rule="evenodd" d="M144.125 97.6962C144.385 98.0762 144.775 98.3762 145.265 98.5062L152.995 100.576C154.065 100.866 155.155 100.226 155.445 99.1562L160.495 80.2962C160.075 81.7562 155.545 93.7162 144.125 97.6962Z" fill="#DFF2FE"/>
<path fill-rule="evenodd" clip-rule="evenodd" d="M144.125 97.6962C144.385 98.0762 144.775 98.3762 145.265 98.5062L152.995 100.576C154.065 100.866 155.155 100.226 155.445 99.1562L160.495 80.2962C160.075 81.7562 155.545 93.7162 144.125 97.6962Z" fill="url(#paint1_linear_690_4086)"/>
<path fill-rule="evenodd" clip-rule="evenodd" d="M205.405 80.3062C204.985 81.7662 200.715 93.6862 189.305 97.6562L185.635 111.066C184.975 113.476 183.595 115.636 181.675 117.236L181.625 117.276C179.945 118.676 178.035 119.576 176.155 119.956C174.285 120.326 172.575 120.146 171.205 119.596C169.855 119.046 168.785 118.126 168.075 116.926C167.355 115.716 166.965 114.156 167.095 112.356C167.185 111.066 167.535 109.706 168.165 108.386C168.615 107.436 168.245 106.286 167.365 105.706L161.535 101.866C160.605 101.256 159.335 101.556 158.805 102.526C157.285 105.346 156.345 108.436 156.125 111.586C155.855 115.426 156.675 119.236 158.615 122.526C160.565 125.826 163.525 128.346 167.075 129.786C170.615 131.216 174.515 131.496 178.305 130.746C182.085 129.996 185.655 128.236 188.665 125.736C188.965 125.486 189.255 125.226 189.545 124.966C192.885 121.906 195.165 117.866 196.355 113.496L205.405 80.3062Z" fill="#DFF2FE"/>
<path fill-rule="evenodd" clip-rule="evenodd" d="M205.405 80.3062C204.985 81.7662 200.715 93.6862 189.305 97.6562L185.635 111.066C184.975 113.476 183.595 115.636 181.675 117.236L181.625 117.276C179.945 118.676 178.035 119.576 176.155 119.956C174.285 120.326 172.575 120.146 171.205 119.596C169.855 119.046 168.785 118.126 168.075 116.926C167.355 115.716 166.965 114.156 167.095 112.356C167.185 111.066 167.535 109.706 168.165 108.386C168.615 107.436 168.245 106.286 167.365 105.706L161.535 101.866C160.605 101.256 159.335 101.556 158.805 102.526C157.285 105.346 156.345 108.436 156.125 111.586C155.855 115.426 156.675 119.236 158.615 122.526C160.565 125.826 163.525 128.346 167.075 129.786C170.615 131.216 174.515 131.496 178.305 130.746C182.085 129.996 185.655 128.236 188.665 125.736C188.965 125.486 189.255 125.226 189.545 124.966C192.885 121.906 195.165 117.866 196.355 113.496L205.405 80.3062Z" fill="url(#paint2_linear_690_4086)"/>
<path fill-rule="evenodd" clip-rule="evenodd" d="M125.545 64.4562L130.565 75.5062C131.105 74.5962 131.795 73.7062 132.655 72.8462C137.475 68.0262 143.465 68.4362 146.145 71.1162C148.145 73.1162 148.885 76.9862 147.095 80.8262C148.715 77.7762 152.875 62.3762 152.875 62.3762C144.955 55.6062 133.135 57.4262 125.545 64.4562Z" fill="url(#paint3_linear_690_4086)"/>
<path fill-rule="evenodd" clip-rule="evenodd" d="M170.585 64.4462L175.605 75.4962C176.145 74.5862 176.835 73.6962 177.695 72.8362C180.405 70.1262 183.495 69.0662 186.145 69.1362C188.215 69.1862 190.025 69.9262 191.205 71.0962C193.165 73.0562 193.905 76.8062 192.255 80.5662C198.335 67.5862 198.695 63.0462 198.695 63.0462C190.785 55.4662 178.415 57.1662 170.575 64.4362L170.585 64.4462Z" fill="url(#paint4_linear_690_4086)"/>
<path fill-rule="evenodd" clip-rule="evenodd" d="M232.755 71.9762L220.385 76.9762C220.385 76.9762 217.375 82.5062 220.335 86.5762L242.395 77.6562L232.745 71.9762H232.755Z" fill="url(#paint5_radial_690_4086)"/>
<defs>
<linearGradient id="paint0_linear_690_4086" x1="63.1768" y1="114.603" x2="20.7417" y2="96.6136" gradientUnits="userSpaceOnUse">
<stop stop-color="#00A6F4"/>
<stop offset="0.852612" stop-color="#00A6F4" stop-opacity="0"/>
</linearGradient>
<linearGradient id="paint1_linear_690_4086" x1="146.999" y1="53.1821" x2="177.632" y2="145.213" gradientUnits="userSpaceOnUse">
<stop stop-color="#00A6F4"/>
<stop offset="0.500053" stop-color="#00A6F4" stop-opacity="0"/>
</linearGradient>
<linearGradient id="paint2_linear_690_4086" x1="156.075" y1="68.9703" x2="167.017" y2="136.789" gradientUnits="userSpaceOnUse">
<stop stop-color="#00A6F4"/>
<stop offset="0.500053" stop-color="#00A6F4" stop-opacity="0"/>
</linearGradient>
<linearGradient id="paint3_linear_690_4086" x1="174.851" y1="88.0242" x2="145.125" y2="50.246" gradientUnits="userSpaceOnUse">
<stop stop-color="#00A6F4"/>
<stop offset="0.852612" stop-color="#00A6F4" stop-opacity="0"/>
</linearGradient>
<linearGradient id="paint4_linear_690_4086" x1="221.306" y1="87.69" x2="192.175" y2="49.2007" gradientUnits="userSpaceOnUse">
<stop stop-color="#00A6F4"/>
<stop offset="0.852612" stop-color="#00A6F4" stop-opacity="0"/>
</linearGradient>
<radialGradient id="paint5_radial_690_4086" cx="0" cy="0" r="1" gradientUnits="userSpaceOnUse" gradientTransform="translate(233.704 78.4833) rotate(161.186) scale(41.8277 39.0913)">
<stop offset="0.171063" stop-color="#00A6F4" stop-opacity="0"/>
<stop offset="1" stop-color="#00A6F4"/>
</radialGradient>
</defs>
</svg>
