<svg width="513" height="512" viewBox="0 0 513 512" fill="none" xmlns="http://www.w3.org/2000/svg">
<path d="M334.976 78.6089C337.21 77.1765 340.191 77.9775 341.394 80.3268L376.06 148.915C377.779 152.353 374.625 156.251 370.901 155.277L354.169 150.75L280.366 425.51L280.31 425.566C278.992 430.551 274.409 434.048 269.253 434.049H206.278C201.006 434.049 196.419 430.492 195.159 425.393L137.572 209.428C135.91 203.297 139.578 197.05 145.708 195.388L190.005 183.525C196.135 181.865 202.377 185.533 204.039 191.605L238.023 318.529L287.758 132.871L271.715 128.518C267.99 127.487 267.19 122.558 270.456 120.438L334.976 78.6089Z" fill="white"/>
</svg>
