<svg width="513" height="512" viewBox="0 0 513 512" fill="none" xmlns="http://www.w3.org/2000/svg">
<rect width="512" height="512" transform="translate(0.619141)" fill="black"/>
<path d="M334.737 78.6089C336.972 77.1765 339.952 77.9775 341.156 80.3268L375.822 148.915C377.541 152.353 374.387 156.251 370.663 155.277L353.931 150.75L280.128 425.51L280.072 425.566C278.754 430.551 274.171 434.048 269.015 434.049H206.039C200.768 434.049 196.181 430.492 194.92 425.393L137.334 209.428C135.672 203.297 139.339 197.05 145.47 195.388L189.767 183.525C195.897 181.865 202.139 185.533 203.801 191.605L237.784 318.529L287.52 132.871L271.477 128.518C267.752 127.487 266.951 122.558 270.218 120.438L334.737 78.6089Z" fill="white"/>
</svg>
