<svg width="513" height="512" viewBox="0 0 513 512" fill="none" xmlns="http://www.w3.org/2000/svg">
<rect width="512" height="512" transform="translate(0.192383)" fill="#00A6F4"/>
<path d="M334.311 78.6089C336.545 77.1765 339.526 77.9775 340.729 80.3268L375.395 148.915C377.114 152.353 373.96 156.251 370.236 155.277L353.504 150.75L279.701 425.51L279.645 425.566C278.327 430.551 273.744 434.048 268.588 434.049H205.612C200.341 434.049 195.754 430.492 194.494 425.393L136.907 209.428C135.245 203.297 138.913 197.05 145.043 195.388L189.34 183.525C195.47 181.865 201.712 185.533 203.374 191.605L237.358 318.529L287.093 132.871L271.05 128.518C267.325 127.487 266.525 122.558 269.791 120.438L334.311 78.6089Z" fill="white"/>
<path d="M206.356 434.105H205.668C200.397 434.105 195.813 430.552 194.552 425.452L136.907 209.427C135.245 203.296 138.913 197.05 145.044 195.388L189.338 183.527C195.469 181.865 201.715 185.532 203.376 191.606L237.356 318.528L206.413 434.105H206.356Z" fill="#B5E4FF"/>
<path d="M206.356 434.105H205.668C200.397 434.105 195.813 430.552 194.552 425.452L136.907 209.427C135.245 203.296 138.913 197.05 145.044 195.388L189.338 183.527C195.469 181.865 201.715 185.532 203.376 191.606L237.356 318.528L206.413 434.105H206.356Z" fill="url(#paint0_linear_690_4094)"/>
<defs>
<linearGradient id="paint0_linear_690_4094" x1="318.448" y1="513.733" x2="75.2902" y2="410.654" gradientUnits="userSpaceOnUse">
<stop stop-color="#00A6F4"/>
<stop offset="0.852612" stop-color="#00A6F4" stop-opacity="0"/>
</linearGradient>
</defs>
</svg>
