<svg width="513" height="512" viewBox="0 0 513 512" fill="none" xmlns="http://www.w3.org/2000/svg">
<path d="M334.357 78.6089C336.591 77.1765 339.572 77.9775 340.775 80.3268L375.441 148.915C377.16 152.353 374.006 156.251 370.282 155.277L353.55 150.75L279.747 425.51L279.691 425.566C278.373 430.551 273.79 434.048 268.634 434.049H205.658C200.387 434.049 195.8 430.492 194.539 425.393L136.953 209.428C135.291 203.297 138.958 197.05 145.089 195.388L189.386 183.525C195.516 181.865 201.758 185.533 203.42 191.605L237.403 318.529L287.139 132.871L271.096 128.518C267.371 127.487 266.571 122.558 269.837 120.438L334.357 78.6089Z" fill="#00A6F4"/>
</svg>
