<svg width="512" height="512" viewBox="0 0 512 512" fill="none" xmlns="http://www.w3.org/2000/svg">
<rect width="512" height="512" fill="#00A6F4"/>
<path d="M334.118 78.6089C336.353 77.1765 339.333 77.9775 340.537 80.3268L375.203 148.915C376.922 152.353 373.768 156.251 370.043 155.277L353.312 150.75L279.509 425.51L279.453 425.566C278.135 430.551 273.552 434.048 268.395 434.049H205.42C200.148 434.049 195.562 430.492 194.301 425.393L136.715 209.428C135.053 203.297 138.72 197.05 144.851 195.388L189.147 183.525C195.278 181.865 201.52 185.533 203.182 191.605L237.165 318.529L286.901 132.871L270.858 128.518C267.133 127.487 266.332 122.558 269.598 120.438L334.118 78.6089Z" fill="white"/>
</svg>
